<?xml version="1.0" encoding="utf-8"?>
<!DOCTYPE svg PUBLIC "-//W3C//DTD SVG 1.0//EN" "http://www.w3.org/TR/2001/REC-SVG-20010904/DTD/svg10.dtd">
<svg version="1.0" xmlns="http://www.w3.org/2000/svg" width="1089px" height="667px" viewBox="0 0 1089 667" preserveAspectRatio="xMidYMid meet">
 <g fill="#ffffff">
  <path d="M0 333.5 l0 -333.5 544.5 0 544.5 0 0 333.5 0 333.5 -544.5 0 -544.5 0 0 -333.5z m641 291.6 c28 -3.8 51.3 -7.9 53.9 -9.5 0.9 -0.6 0.7 -1.6 -0.8 -3.9 -2.2 -3.4 -3.5 -3.6 -11.1 -1.7 -3.8 0.9 -27.6 4.4 -37.5 5.5 -34 3.6 -82.5 1.8 -112 -4.1 -9.3 -1.9 -10.3 -2.5 -10.7 -6.7 -0.2 -2.7 -0.9 -1.5 -3.6 6.6 -1.9 5.5 -3.2 10 -3 10.2 0.4 0.4 12.1 2.1 28.3 4 13 1.5 84.6 1.3 96.5 -0.4z m-141.3 -13.9 l2 -5.8 -16.6 -3.8 c-19.4 -4.4 -48.3 -12.9 -65.5 -19.2 -6.6 -2.5 -20.8 -8.8 -31.3 -14 l-19.3 -9.4 0 -3.6 0 -3.6 -2.6 1.7 c-1.4 0.9 -3.3 2.3 -4.2 3 -0.9 0.8 -4.6 3.5 -8.1 6.1 l-6.5 4.7 3.9 1.9 c20.1 10.4 74.9 30.3 105.5 38.5 3 0.8 7.1 1.9 9 2.4 12.7 3.3 26.9 6.7 29.1 6.8 2.3 0.1 2.8 -0.5 4.6 -5.7z m222.8 -1.7 c1.1 -0.4 3.4 -1.3 5 -2 1.7 -0.8 5.3 -2.3 8.1 -3.4 24.3 -9.5 47.8 -25.2 67.7 -45.3 6.4 -6.5 11.7 -12.3 11.7 -12.8 0 -0.6 -2.8 -1 -6.2 -1 l-6.3 0 -7 6.8 c-9.4 9.1 -19.8 17.4 -32.5 25.8 -11.4 7.7 -34.3 19.4 -37.8 19.4 -1.1 0 -2.4 0.5 -2.7 1 -0.3 0.6 -2.9 1 -5.7 1 -4 0 -5.8 -0.5 -7.6 -2.2 -1.4 -1.3 -2.3 -1.8 -1.9 -1.3 0.3 0.6 2.1 4.5 4.1 8.7 3.8 8.4 3.1 8.1 11.1 5.3z m-348.5 -0.9 c0 -0.2 -3.9 -1.8 -8.7 -3.6 -26.6 -10.1 -76.3 -33.8 -88.5 -42.2 -1.4 -1 -2.9 -1.8 -3.2 -1.8 -0.4 0 -1.9 -0.8 -3.4 -1.9 -2.4 -1.6 -11 -7 -21.8 -13.6 -6.6 -4 -27.5 -18.7 -37 -26 -8.1 -6.2 -22 -17.2 -23.4 -18.6 -0.8 -0.8 -4.3 -3.8 -7.6 -6.7 -6 -5.1 -6.4 -5.3 -11.4 -5 l-5.3 0.3 11.4 9.1 c22.4 17.8 47.3 35.5 68.4 48.4 17.8 10.8 21.5 13 28.5 16.9 9.5 5.2 43.3 22.2 48 24.1 1.9 0.7 5.8 2.4 8.5 3.6 2.8 1.2 8.6 3.7 13 5.4 4.4 1.8 9.1 3.7 10.5 4.3 3.6 1.5 20.4 7.5 21.3 7.6 0.4 0.1 0.7 -0.1 0.7 -0.3z m-37.1 -55.1 c3.9 -2.7 7 -5.2 7 -5.5 0 -0.3 -1.8 -1.6 -4.1 -3 -2.3 -1.4 -6.8 -4.2 -10 -6.2 -3.2 -2.1 -6 -3.8 -6.3 -3.8 -0.6 0 -22.2 -14.4 -37 -24.7 -2.7 -1.9 -10.9 -7.9 -18.1 -13.4 l-13.1 -9.9 -18.8 0.2 -18.9 0.3 4 2.7 c2.1 1.4 5.2 3.8 6.8 5.2 1.6 1.4 3.2 2.6 3.5 2.6 0.3 0 1.7 1 3.1 2.3 3.4 3 43 29.5 50.5 33.7 3.3 1.9 6.2 3.7 6.5 4 0.3 0.4 6.8 4.2 14.5 8.5 7.7 4.3 15.8 8.9 18 10.2 2.2 1.2 4.3 2.2 4.7 2 0.4 -0.1 3.9 -2.4 7.7 -5.2z m598.1 -32.6 c0 -0.5 -0.9 -0.9 -2 -0.9 -2.2 0 -2.3 0.1 -1.4 2.4 0.5 1.3 0.9 1.4 2 0.5 0.8 -0.6 1.4 -1.5 1.4 -2z m-393.1 -2.9 c0.9 -2.8 0.8 -3 -1.4 -3 -2.2 0 -2.3 0.2 -1.4 3 0.6 1.7 1.2 3 1.4 3 0.2 0 0.8 -1.3 1.4 -3z m-12.2 -18.9 c-1.3 -3.4 -2.7 -3.1 -2.7 0.5 0 1.7 0.6 2.4 1.9 2.4 1.7 0 1.8 -0.3 0.8 -2.9z m-24.7 -2.7 c0 -1.4 -0.3 -1.4 -1.5 -0.4 -0.8 0.7 -1.5 1.4 -1.5 1.6 0 0.2 0.7 0.4 1.5 0.4 0.8 0 1.5 -0.7 1.5 -1.6z m68.5 -22.9 c17.5 -3.3 28.8 -8.9 39.1 -19.1 10.3 -10.3 16 -22.3 21.1 -44.4 1.7 -7.6 2 -24.7 0.4 -26.3 -0.6 -0.6 -1.1 -1.9 -1.1 -2.8 0 -5.5 -7.8 -14.3 -16.8 -18.9 -15.1 -7.8 -44.3 -9.1 -65.2 -2.9 -13.8 4.2 -19.5 7.4 -28.6 16.4 -6.5 6.5 -9 9.8 -12.8 17.4 -12.2 24.5 -14.1 50.3 -4.6 64.3 6 8.8 12.6 12.4 30.5 16.6 6.6 1.6 29.1 1.4 38 -0.3z m-272.5 -2 c16.3 -3.1 24.3 -6.6 33.2 -14.5 8.9 -7.9 12.9 -16.8 17.4 -38.5 3.6 -17.7 4 -19.6 6.4 -30.5 2.5 -11.7 4.6 -22.3 5.5 -27.2 l0.6 -3.8 -12.4 0 -12.4 0 -0.6 2.8 c-0.3 1.5 -2.9 13.7 -5.7 27.2 -2.8 13.5 -6 29 -7.1 34.5 -4 20.8 -8.3 29.6 -16.3 33.4 -4.1 2.1 -5.8 2.2 -17.8 1.9 -11.4 -0.3 -14 -0.6 -17.9 -2.6 -3 -1.5 -5.1 -3.3 -5.9 -5.1 -1.8 -4.5 -0.7 -18 2.9 -34.1 1.7 -8 3.6 -16.5 4 -19 0.9 -4.8 4.1 -20.2 6.6 -31.5 0.8 -3.8 1.5 -7.1 1.5 -7.3 0 -0.1 -8.4 -0.1 -18.7 0 l-18.8 0.3 -0.6 3.5 c-0.7 3.8 -9.4 46.2 -13.4 65.5 -2.9 14.1 -3.1 18.9 -0.9 24.1 3.3 7.9 12 15.6 20.4 18.1 14.4 4.3 36 5.5 50 2.8z m422.5 0 c11.6 -1.5 18.4 -2.8 25 -4.6 2.2 -0.6 4.9 -1.3 6 -1.5 5.5 -1.4 6.3 -3.2 10 -20.7 1.9 -9.3 3.7 -17.7 4 -18.8 0.5 -1.6 0.1 -1.9 -2.7 -2 -8.8 -0.2 -22.4 0.3 -23.1 1 -0.4 0.4 -2 6.7 -3.5 14 -2.1 10.4 -3.1 13.7 -4.7 14.7 -3.4 2.2 -26.3 4 -33.7 2.6 -5.4 -1 -6.8 -1.7 -10 -5.2 -3.4 -3.8 -3.7 -4.6 -4.3 -12.6 -1.6 -18.7 3.3 -40.3 11.7 -52 3.4 -4.7 11 -10.2 16.8 -12.1 12 -4 37.4 -3.6 52.9 0.7 4 1.1 7.4 1.9 7.5 1.8 0.1 -0.2 0 -4.2 -0.2 -9 l-0.4 -8.7 -5.2 -1 c-12.2 -2.4 -21.4 -3.2 -37.7 -3.3 -14.9 -0.1 -18.7 0.3 -26.4 2.2 -4.9 1.2 -9.4 2.6 -10 2.9 -0.5 0.4 -2.6 1.4 -4.5 2.1 -4.4 1.7 -13.5 7.8 -17.6 11.8 -14 13.4 -24.4 42 -23.2 63.6 1 16.7 8.8 26.2 26.4 32.2 9.6 3.2 30.5 4.1 46.9 1.9z m295.5 -0.9 c18.3 -4.6 29 -11.3 36.6 -23 4.1 -6.5 7.4 -16.5 7.4 -22.6 0 -6 -5.4 -13.6 -12.2 -17.1 -9.1 -4.7 -16.5 -6.6 -34.3 -8.9 -27.2 -3.4 -27.5 -3.6 -27.5 -11.9 0 -6.6 1.5 -9.3 6.8 -12 6.7 -3.3 13.9 -4.4 30.6 -4.3 13.3 0 18.2 0.4 28.5 2.6 6.9 1.4 12.6 2.4 12.8 2.2 0.2 -0.2 0 -3.6 -0.3 -7.5 -0.8 -8.4 -0.3 -8 -13.6 -10.7 l-8.8 -1.7 -0.2 -4.6 -0.1 -4.6 -0.4 4.2 -0.4 4.3 -18.7 0 c-25.4 0 -37.5 2 -50.6 8.4 -15.7 7.7 -25.6 21.3 -25.6 35.5 0 12.1 11.2 18.4 37.6 21.1 21.3 2.1 30.6 4.7 33.9 9.3 1.8 2.6 2 12.9 0.4 16 -2 3.9 -7.3 7.7 -10.7 7.7 -1 0 -2.4 0.6 -3.1 1.3 -1.7 1.7 -38.6 1.6 -46.1 -0.2 -3 -0.8 -8.8 -2.9 -12.9 -4.7 -4.1 -1.9 -7.6 -3.4 -7.9 -3.4 -0.2 0 -0.3 4.5 0 10.1 0.3 7.4 0.8 10.3 1.8 10.9 1.9 1.2 9.3 2.9 19.5 4.6 11.3 1.8 48.7 1.2 57.5 -1z m-584.2 0.2 c0.6 -0.7 1.5 -3.8 2.1 -6.8 0.8 -4.5 5.1 -25.4 12.1 -59 0.6 -2.5 2.2 -10.6 3.8 -18 l2.7 -13.5 18.7 -0.3 18.7 -0.2 1 -3.8 c0.5 -2 1.2 -5.2 1.6 -7 l0.7 -3.2 -56.3 0.2 -56.2 0.3 -1.3 6 c-0.7 3.3 -1.3 6.3 -1.3 6.8 -0.1 0.4 8 0.7 17.9 0.7 l18 0 0 3.4 c0 1.9 -1.6 11 -3.5 20.3 -2 9.2 -4.4 21.1 -5.5 26.3 -1 5.2 -3.3 16.3 -5.1 24.5 -4.6 22.1 -4.8 22.9 -4.9 23.8 0 0.4 8 0.7 17.9 0.7 13.1 0 18.1 -0.3 18.9 -1.2z m-348.1 -1.6 c1.3 -0.4 4.3 -3.9 7.2 -8.4 6.1 -9.4 4.4 -9 38.1 -8.6 l24.4 0.3 1.4 5 c0.8 2.8 2 6.6 2.6 8.5 l1.2 3.5 19.2 0.3 c13.8 0.2 19.2 -0.1 19.2 -0.9 0 -0.6 -0.9 -5 -2 -9.8 -1.2 -4.7 -3.2 -13.3 -4.6 -19.1 -1.3 -5.8 -2.9 -12.1 -3.4 -14 -0.5 -1.9 -1.8 -7.5 -3 -12.5 -1.2 -4.9 -2.5 -10.6 -3 -12.5 -0.5 -1.9 -1.9 -7.5 -3 -12.5 -1.1 -4.9 -2.5 -10.7 -3 -12.7 -1 -3.7 -2 -7.9 -3.7 -14.8 l-0.9 -3.5 -17.2 -0.3 -17.2 -0.2 -6.3 9.7 c-7.7 12 -27.6 42.7 -43.6 67.3 -11.7 17.9 -20.9 32.2 -22.5 34.8 -0.5 0.9 1.4 1.2 8.6 1.1 5.1 -0.1 10.3 -0.4 11.5 -0.7z m721 -7.7 c2.9 -4.4 6.3 -8.3 7.4 -8.7 1.2 -0.5 14.1 -0.7 28.8 -0.6 l26.6 0.3 1.3 4.5 c0.7 2.5 1.9 6.3 2.6 8.5 l1.3 4 18.8 0.3 c10.4 0.1 19.2 -0.1 19.6 -0.5 0.4 -0.5 0 -3.9 -1 -7.8 -1 -3.8 -2.8 -11.3 -4 -16.5 -1.2 -5.2 -2.6 -11.1 -3.1 -13 -0.5 -1.9 -1.8 -7.5 -3 -12.5 -1.2 -4.9 -2.5 -10.6 -3 -12.5 -0.5 -1.9 -2.3 -9.3 -4 -16.5 -1.7 -7.1 -3.5 -14.6 -4 -16.5 -0.5 -1.9 -1.4 -5.7 -2 -8.5 -0.7 -2.7 -1.4 -5.8 -1.7 -6.7 -0.4 -1.6 -2.1 -1.8 -17.7 -1.8 l-17.3 0 -3.3 5.3 c-3.2 4.9 -11.2 17.1 -30.5 46.7 -4.5 6.9 -13.2 20.4 -19.5 30 -6.2 9.6 -12.9 20 -14.9 23 -2.1 3 -4.1 6.1 -4.5 6.8 -0.6 1 1.6 1.2 10.5 1 l11.3 -0.3 5.3 -8z m236 -131 c-0.3 -4.9 -1.3 -12.4 -2.2 -16.5 -0.9 -4.1 -2.1 -11.1 -2.7 -15.5 l-1.1 -8 -8.6 -8.5 c-7.8 -7.7 -15 -12.8 -26.6 -18.7 -5.9 -3.1 -11.2 -5.3 -12.4 -5.3 -0.7 0 -2.3 -0.7 -3.7 -1.6 -1.3 -0.9 -2.7 -1.5 -2.9 -1.2 -0.3 0.2 3.9 2.6 9.3 5.3 13.2 6.6 22.6 13.1 29.3 20.2 6.9 7.2 8.9 10.9 8.9 16.6 0 3.8 -0.4 4.6 -2.2 5.1 -4.6 1.4 -41.5 2.6 -92.6 3.1 -32.3 0.3 -53.9 0.9 -56.3 1.5 l-4 1.1 4.8 5.7 c2.6 3.1 7.6 8.8 11 12.6 5.4 5.8 6.3 7.4 6.3 10.6 l0 3.7 13.8 0.5 c22.8 0.9 85.8 -1.5 112.4 -4.3 13.7 -1.5 15 -1.1 17.4 4.7 l1.9 4.7 0.3 -3.4 c0.2 -1.9 0.1 -7.4 -0.1 -12.4z m-984.9 13.1 c0.3 -0.3 -0.4 -2.5 -1.6 -4.8 -9.8 -20.1 -19.4 -52.2 -22.2 -74.3 -5 -38.5 -3 -68.6 6.5 -98.1 2.9 -9.2 9.1 -23.5 12.7 -29.7 1.5 -2.6 2.8 -5 2.8 -5.3 0 -1.1 10.2 -15.6 15.2 -21.6 23.9 -28.7 56.8 -51.6 95.8 -66.5 8.1 -3.1 11 -4.3 13.2 -5.4 1 -0.5 2.5 -0.9 3.3 -0.9 0.8 0 2.3 -0.4 3.3 -1 0.9 -0.5 4.3 -1.7 7.5 -2.6 5.8 -1.6 8 -2.9 3 -1.8 -11.3 2.5 -37.6 10.2 -43.8 12.9 -1.6 0.7 -6.4 2.5 -10.5 4.1 -16.2 6.2 -42.5 21 -56.5 31.8 -8.7 6.8 -10.4 8.4 -21.5 19.6 -24.1 24.4 -38 48.9 -48 85 -5.5 19.4 -6.4 56.5 -2 77.5 0.5 2.2 1.4 6.7 2.1 10 2.9 14.5 9.7 36.2 15.7 50 9.7 22.4 9 21.4 13.6 21.8 4.5 0.5 10.6 0.1 11.4 -0.7z m80.2 0.4 c0 -0.6 -0.4 -1.8 -0.9 -2.8 -0.5 -0.9 -1.3 -2.8 -1.8 -4.2 -1.8 -4.4 -3.5 -8.4 -4.4 -10.2 -0.5 -1 -0.9 -2.7 -0.9 -3.7 0 -1.1 -0.4 -2.2 -0.9 -2.5 -0.5 -0.3 -1.1 -1.6 -1.4 -2.8 -0.3 -1.3 -1.1 -4.1 -1.7 -6.3 -2.2 -7.6 -3.7 -14.2 -6 -26 -1.7 -8.7 -2.9 -45.4 -1.9 -56 0.9 -8.6 3.5 -25.1 4.5 -28.7 0.4 -1.3 2.1 -1.9 6.7 -2.4 l6.2 -0.7 -6 -2.8 c-3.3 -1.6 -6.3 -2.9 -6.7 -2.9 -0.3 0 -4.8 -2 -10 -4.3 -19.1 -8.9 -41.9 -18.9 -42.2 -18.6 -0.1 0.2 -1.1 2.4 -2.1 4.9 -4.7 12 -8.9 31.2 -10 45.5 -0.7 9.1 0.7 29.9 2.6 39 0.6 2.8 1.5 7.3 2 10 1.8 9 7.5 28.2 12.7 42.2 3.2 8.6 3.5 9.2 10.6 24.6 l4.5 9.7 23.5 0 c15.3 0 23.6 -0.4 23.6 -1z m736 -15.6 c0 -0.8 -8.5 -11.8 -10.4 -13.3 -1.9 -1.6 -2.2 -11.1 -0.5 -12.8 1.4 -1.4 -2.5 -1.8 -45.6 -4.3 -18.7 -1.1 -41 -2.5 -49.5 -3 -36.6 -2.3 -52.2 -3.1 -52.6 -2.7 -0.7 0.6 9.5 10.5 14.1 13.7 13.1 9.1 20.2 11.4 42.5 13.9 21.7 2.5 44.2 4.5 66.5 6.1 8.8 0.7 18.7 1.5 22 2 7.6 1 13.5 1.2 13.5 0.4z m-711.1 -42.5 c0.1 -5.3 2.5 -13.1 5.4 -17.4 l2 -3 -3.1 2.9 c-2 1.9 -3.9 5.3 -5.3 9.3 -1.8 5.5 -2 7.6 -1.3 14.1 0.8 7.7 0.8 7.7 1.5 3.2 0.4 -2.5 0.8 -6.6 0.8 -9.1z m479 8.4 c-7.4 -8.4 -15.2 -13.9 -24.9 -17.9 -12.1 -4.9 -24.1 -4.2 -38.7 2.3 -3.7 1.6 -4.5 2.7 -1 1.4 13.5 -5 36.7 -2.7 50.3 5 4.1 2.3 13.7 9.8 14.2 11.1 0.2 0.5 0.9 0.8 1.5 0.8 0.6 0 0 -1.2 -1.4 -2.7z m-428.1 -8 c-1.5 -0.2 -4.2 -0.2 -6 0 -1.8 0.2 -0.6 0.4 2.7 0.4 3.3 0 4.8 -0.2 3.3 -0.4z m-3.8 -50.3 c0 -3.1 0.4 -5 1.2 -5 0.6 0 0.9 -0.2 0.6 -0.5 -0.3 -0.4 -1.6 -0.3 -2.9 0 -2.1 0.5 -2.4 1.2 -2.4 5.5 0 4.1 0.3 5 1.8 5 1.4 0 1.7 -0.9 1.7 -5z m225.8 1.5 c0.3 -0.3 0 -1.1 -0.6 -1.7 -1.7 -1.7 -1.5 -10.9 0.4 -13.6 3.1 -4.4 7.7 -5.4 26.6 -6 9.7 -0.2 19.2 -0.2 21.1 0.2 4.5 0.8 9.5 5.9 10.3 10.5 0.5 2.5 2.1 5 5.1 7.9 l4.5 4.2 8.6 0 8.6 0 -4.4 -4.7 c-18.6 -19.5 -31.9 -31.5 -50.3 -45.5 -15.2 -11.6 -23 -14.8 -37.7 -15.5 -10.5 -0.6 -19 0.8 -38.5 6.1 -21.1 5.8 -61.2 22.9 -79 33.6 -2.7 1.7 -5.9 3.4 -7.1 3.9 -3.8 1.7 -5.4 5.3 -4.3 10.1 1.2 5.3 3.4 9.6 5.6 11 1.3 0.8 19.8 1 66.2 0.6 35.4 -0.3 64.7 -0.8 64.9 -1.1z m177.2 -8.5 c0 -1.1 0.3 -2 0.8 -2.1 0.4 0 27.7 -0.3 60.7 -0.5 33 -0.3 74.1 -0.8 91.4 -1.2 l31.5 -0.7 -8 -4.7 c-4.3 -2.5 -9.5 -5.5 -11.4 -6.6 -1.9 -1 -6 -3.4 -9 -5.2 -5.7 -3.4 -43.7 -22.6 -50.2 -25.4 -9 -3.8 -11.5 -4.9 -14 -6.1 -1.5 -0.7 -4.2 -1.7 -6 -2 -1.8 -0.4 -3.8 -1.1 -4.4 -1.6 -1.4 -1.1 -13.1 -4.9 -15.3 -4.9 -0.9 -0.1 -4.1 -0.9 -7.1 -2 -3 -1.1 -7.2 -1.9 -9.2 -2 -3.5 0 -3.8 0.2 -3.8 2.9 0 2.7 -0.4 2.9 -5.9 4.1 -3.3 0.7 -7.5 1 -9.3 0.6 -8.1 -1.5 -57.1 -3.6 -85.3 -3.7 -28 -0.1 -71.8 2.1 -73.5 3.8 -0.3 0.2 0.3 0.9 1.2 1.4 0.9 0.5 3.5 2.5 5.9 4.5 2.4 1.9 5.3 4.2 6.4 5.1 8.1 6.6 18.3 15.9 32 29.5 l16 15.8 27.5 0.3 c16.1 0.2 28.7 0.8 30.5 1.5 5.1 1.8 8.5 1.5 8.5 -0.8z m-360.9 -11.1 c4.1 -1.3 5.8 -2 13.2 -5.3 3.2 -1.4 6 -2.6 6.3 -2.6 0.6 0 3.2 -1.1 13.7 -5.9 3.7 -1.7 7.1 -3.1 7.6 -3.1 0.5 0 2.6 -0.9 4.8 -1.9 4.9 -2.4 11.7 -5.5 17.3 -7.9 2.5 -1.1 6.6 -2.9 9.2 -4.1 2.6 -1.1 5.2 -2.1 5.8 -2.1 0.6 0 1.8 -0.4 2.8 -0.9 0.9 -0.5 2.8 -1.3 4.2 -1.9 1.4 -0.5 4.1 -1.7 6 -2.5 1.9 -0.9 5.8 -2.3 8.5 -3.2 2.8 -0.9 5.9 -2 7 -2.4 1.1 -0.5 3.5 -1.5 5.3 -2.1 1.8 -0.7 3.1 -1.5 2.8 -1.7 -0.6 -0.7 -16.1 4.4 -20.8 6.8 -1 0.5 -2.3 0.9 -3.1 0.9 -0.7 0 -2.8 0.8 -4.7 1.9 -1.9 1 -4.9 2.1 -6.7 2.5 -1.7 0.4 -3.7 1.4 -4.4 2.2 -0.6 0.8 -2.1 1.4 -3.3 1.4 -1.1 0 -5.6 1.8 -9.8 3.9 -4.3 2.2 -9.1 4.2 -10.7 4.6 -1.6 0.3 -3.5 1.3 -4.2 2.1 -0.6 0.8 -1.8 1.4 -2.5 1.4 -0.8 0 -2.2 0.4 -3.2 1 -3.2 1.8 -13.4 6 -14.7 6 -0.7 0 -1.8 0.6 -2.4 1.4 -0.7 0.8 -2.6 1.8 -4.4 2.2 -1.7 0.3 -4.4 1.4 -6.1 2.4 -1.7 0.9 -4.3 2 -5.8 2.4 -1.6 0.3 -2.8 1.1 -2.8 1.6 0 0.6 -0.8 1 -1.7 1 -1.8 0.1 -8.4 2.8 -7.2 2.9 0.3 0.1 2.1 -0.4 4 -1z m-116.6 -46.6 c13.9 -24.2 37 -47.7 60.5 -61.5 5.2 -3.1 12.2 -6.8 15.5 -8.3 3.3 -1.5 7.8 -3.5 10 -4.5 6.7 -3.2 28.1 -10 31.1 -10 1.6 0 5.3 1.4 8.3 3 3 1.7 5.5 2.9 5.7 2.8 0.6 -0.7 -38.5 -39.8 -39.9 -39.8 -0.8 0 -7.1 1.5 -13.8 3.4 -11 3 -16.4 4.8 -23.4 7.6 -1.1 0.4 -4.7 1.8 -8 3 -7 2.6 -21.3 9.4 -30.2 14.4 -27.8 15.6 -52.8 39.3 -68.8 65.4 -2.1 3.4 -3.6 6.5 -3.3 6.7 0.8 0.9 51.2 22.4 52.5 22.5 0.6 0 2.3 -2.1 3.8 -4.7z m236.5 -2.3 c1.3 -0.9 1.3 -1 0 -1 -0.8 0 -2.2 0.5 -3 1 -1.3 0.9 -1.3 1 0 1 0.8 0 2.2 -0.5 3 -1z m11.5 -2.9 c2.2 -0.5 5.8 -1.4 8 -2 4.2 -1.2 10.5 -2.3 34 -6.1 24.3 -3.9 55.3 -5.9 91.9 -5.9 19.1 0 35 -0.2 35.3 -0.4 0.2 -0.3 -5.8 -0.8 -13.4 -1.2 -22.1 -1.2 -81.1 0.8 -100.8 3.4 -17.3 2.3 -22.2 3.1 -26 4 -2.2 0.5 -6 1.3 -8.5 1.9 -2.5 0.5 -7.9 1.7 -12 2.6 -8.1 1.8 -20.5 5.9 -15.5 5.2 1.7 -0.3 4.8 -0.9 7 -1.5z m263.5 -5.1 c-0.8 -0.5 -2.8 -0.9 -4.5 -0.9 -2.9 0.1 -2.9 0.1 -0.5 0.9 1.4 0.4 3.4 0.8 4.5 0.9 1.6 0.1 1.7 -0.1 0.5 -0.9z m-13.5 -2 c-1.1 -0.5 -4.5 -0.8 -7.5 -0.8 -4.5 0 -5 0.2 -2.5 0.8 4.4 1.1 12.6 1.1 10 0z m-13.8 -1.6 c-0.3 -0.3 -5 -1 -10.4 -1.6 -5.4 -0.5 -14.1 -1.4 -19.3 -1.9 -5.2 -0.5 -15.6 -1.1 -23 -1.3 l-13.5 -0.4 11.5 0.9 c6.3 0.6 19.6 1.8 29.5 2.8 20.1 2 26.1 2.4 25.2 1.5z m5.2 -19.9 c-1.1 -1 -32.9 -18.8 -40.4 -22.6 -4.4 -2.2 -8.7 -4.4 -9.5 -4.9 -5.2 -3.1 -39.5 -18 -57.5 -25 -11.4 -4.5 -48.7 -17 -50.5 -17 -1.1 0 -1.2 7.3 -0.2 16 0.7 5.4 0.7 5.4 5.2 6.8 2.5 0.7 6.3 1.7 8.5 2.2 24 5.2 59.8 18.2 91.5 33 17.5 8.2 16 7.7 29.5 9.1 9.1 0.9 18.3 2 22.9 2.8 0.5 0 0.7 -0.1 0.5 -0.4z m-175.8 -57.8 c-0.6 -4.4 -1.1 -10.2 -1.1 -12.8 0 -4.5 -0.2 -4.9 -2.7 -5.5 -1.6 -0.3 -4.4 -1 -6.3 -1.4 -4.6 -1.1 -21.3 -4.5 -32 -6.5 -47.3 -8.9 -102.1 -10.4 -148.4 -4.2 l-8.9 1.2 14.4 14.3 14.4 14.4 4.5 -0.7 c21.7 -3.2 40.5 -4.4 68.5 -4.4 31 0 54.4 2 81 6.9 12.1 2.2 13 2.6 15.1 7.2 1.6 3.7 1.9 4 2.2 1.9 0.2 -1.3 -0.1 -5.9 -0.7 -10.4z"/>
  <path d="M545.4 457.6 c-11.4 -5 -13.5 -25 -5.9 -53.8 4.9 -18.4 11.5 -27.7 22.4 -31.3 7.7 -2.5 23.3 -1.8 28.5 1.4 4.4 2.7 5.7 4.9 7.3 12.1 1.5 6.8 1.6 14.6 0.3 20.2 -8.6 38 -13.1 46.7 -27 51.5 -4.7 1.7 -21.6 1.6 -25.6 -0.1z"/>
  <path d="M115.3 437.3 c-0.7 -0.2 -1.3 -1.9 -1.3 -3.8 0 -2.5 2.4 -6.9 10.1 -18.4 5.5 -8.4 10.3 -15.9 10.6 -16.7 0.4 -1.1 1.7 -1.4 4.7 -1.2 4.4 0.3 4.4 0.3 7.6 13.8 0.4 1.9 1.4 6 2.1 9 0.7 3 1.3 8.2 1.3 11.5 l0.1 6 -17 0.2 c-9.3 0.1 -17.6 -0.1 -18.2 -0.4z"/>
  <path d="M829.7 437.4 c-0.4 -0.4 -0.7 -2.4 -0.7 -4.4 0 -3.1 1.8 -6.5 10.3 -19.1 l10.2 -15.4 4.2 -0.3 c3.9 -0.3 4.3 -0.1 4.8 2.5 0.3 1.5 1 4.4 1.5 6.3 3.3 12.3 5.1 22.2 4.8 26 l-0.3 4.5 -17.1 0.3 c-9.3 0.1 -17.3 -0.1 -17.7 -0.4z"/>
 </g>
 <g fill="#ea1f24">
  <path d="M603 630.3 c-1.4 -0.1 -15.1 -0.5 -30.5 -0.7 -15.4 -0.3 -31.1 -1 -35 -1.5 -3.8 -0.5 -10.8 -1.4 -15.5 -2.1 -4.6 -0.6 -9 -1.6 -9.6 -2.1 -1.4 -1.2 -1.5 -0.8 5.4 -20.4 5.9 -16.9 7.8 -18.5 8.1 -6.8 0.1 4.2 0.7 8.3 1.2 8.9 0.5 0.7 6 2.1 12.2 3.2 22.6 4.1 36.2 5.2 63.7 5.2 29.4 0 56.8 -2.6 81.7 -7.9 4.9 -1.1 9.1 -1.7 9.5 -1.5 0.9 0.6 8 12.6 7.6 12.8 -0.3 0.2 -6 1.8 -12.4 3.5 -2.3 0.6 -5.2 1.1 -6.4 1.1 -1.3 0 -3.7 0.4 -5.4 0.9 -1.7 0.6 -6.7 1.5 -11.1 2.1 -4.4 0.6 -9.6 1.3 -11.5 1.6 -15.9 2.5 -43.8 4.5 -52 3.7z"/>
  <path d="M495 620.9 c-1.4 -0.5 -8.3 -2.2 -15.5 -3.9 -7.1 -1.7 -14.6 -3.4 -16.5 -3.9 -1.9 -0.5 -6 -1.6 -9 -2.4 -39.3 -10.5 -111.1 -38 -112.6 -43.2 -0.2 -0.5 3.5 -3.7 8.3 -7 4.7 -3.3 9.1 -6.5 9.7 -7 1.3 -1.2 20.5 -14.9 22.5 -16 2.3 -1.3 0.8 1.5 -4.8 9.4 -2.8 3.9 -5.1 7.5 -5.1 8.1 0 1.5 37.1 19.3 50.6 24.4 17.3 6.3 46.1 14.8 65.8 19.3 9.5 2.1 17.1 4.4 17.3 5.1 0.3 0.7 -0.5 3.8 -1.7 7 -1.2 3.1 -2.7 6.9 -3.2 8.5 -1.1 2.8 -1.8 3 -5.8 1.6z"/>
  <path d="M705.1 599.9 c-4 -8.8 -7 -16.3 -6.8 -16.6 0.3 -0.3 4.1 2.5 8.5 6.1 7.5 6.2 11.3 7.9 12.7 5.6 0.3 -0.5 1.6 -1 2.7 -1 3.5 0 26.4 -11.7 37.8 -19.4 12.7 -8.4 23.1 -16.7 32.5 -25.8 l7 -6.8 11.1 0 c6.1 0 11.3 0.3 11.7 0.6 0.9 0.9 -12.6 16.5 -20.9 24.4 -17.4 16.3 -41.7 31.9 -62.8 40.1 -2.8 1.1 -6.4 2.7 -8.1 3.4 -3.8 1.8 -15.5 5.5 -17 5.5 -0.7 0 -4.5 -7.2 -8.4 -16.1z"/>
  <path d="M323 560.6 c-3 -1.8 -11.8 -6.8 -19.5 -11.1 -7.7 -4.3 -14.2 -8.1 -14.5 -8.5 -0.3 -0.3 -3.2 -2.1 -6.5 -4 -7.5 -4.2 -47.1 -30.7 -50.5 -33.7 -1.4 -1.3 -2.8 -2.3 -3.1 -2.3 -0.3 0 -1.7 -0.9 -3 -2.1 -1.3 -1.2 -5.7 -4.6 -9.6 -7.6 -4 -3 -7.3 -5.9 -7.3 -6.4 0 -0.5 10.5 -0.9 24.7 -0.9 l24.7 0 13 9.9 c7.2 5.5 15.4 11.5 18.1 13.4 15.3 10.7 36.4 24.7 37.1 24.7 0.2 0 2.8 1.5 5.7 3.4 2.8 1.8 8.2 5.3 11.9 7.6 3.7 2.3 6.5 4.6 6.2 5.1 -0.8 1.4 -20.8 16 -21.6 15.8 -0.1 0 -2.8 -1.5 -5.8 -3.3z"/>
  <path d="M532.5 476.8 c-18.4 -4.3 -24.9 -8 -30.8 -17.3 -4.5 -7 -6 -13.1 -5.9 -24.5 0.1 -16.2 3.5 -30.4 10.8 -45.1 3.8 -7.6 6.3 -10.9 12.8 -17.4 8.7 -8.6 14 -11.7 27.1 -16 9.1 -3.1 15.8 -3.8 34.5 -3.9 20.1 -0.1 27.4 1.1 37.5 6.1 9.5 4.7 17.5 13.5 17.5 19.2 0 0.9 0.5 2.2 1.2 2.9 1.7 1.7 1.4 24.2 -0.5 32.2 -3.3 13.9 -4.9 18.8 -9.4 27.9 -9.7 19.6 -25.7 30.8 -50.8 35.6 -9 1.7 -37.3 1.9 -44 0.3z m35.5 -22.1 c8 -2.7 12.5 -7.1 17 -16.2 4.1 -8.4 9.5 -29.4 10.4 -40.5 0.3 -4.2 -1.5 -13.6 -3.2 -16.7 -3.5 -6.2 -17.1 -9.1 -27.2 -5.8 -7.2 2.4 -14 8.8 -17.5 16.6 -3.5 8 -7.2 21.7 -8.7 32.9 -2 15.3 1.5 26 9.6 29.6 3.9 1.7 15 1.8 19.6 0.1z"/>
  <path d="M979.5 476.3 c-15.1 -0.5 -35.7 -3.8 -40.7 -6.4 -1.4 -0.7 -1.6 -2.9 -1.7 -14.4 -0.1 -7.5 0.1 -14 0.4 -14.5 0.3 -0.5 5.1 1.3 10.8 4 5.6 2.6 12.7 5.4 15.7 6.1 7.5 1.7 38.4 1.9 40.1 0.2 0.7 -0.7 2.1 -1.3 3.1 -1.3 5.5 0 11.8 -6.8 11.8 -12.7 0 -7.8 -9.8 -12.1 -31.5 -13.8 -13.7 -1.1 -24.5 -3.5 -32.1 -7.2 -7.1 -3.6 -9.7 -8.1 -9.6 -17.2 0.1 -23.2 17.6 -40.4 45.7 -45.1 2.8 -0.4 6.6 -1.1 8.5 -1.5 1.9 -0.4 12 -0.7 22.3 -0.7 l18.9 0 -0.6 -2.4 c-0.6 -2.3 -0.4 -2.4 4 -2.4 4.5 0 4.6 0.1 4.2 2.9 -0.4 2.9 -0.4 2.9 8.1 4.6 11.8 2.3 13.1 2.9 13.1 6.2 0 1.5 0.5 6.4 1.2 11 0.7 4.5 0.9 8.5 0.6 8.8 -0.3 0.4 -3 -0.1 -5.9 -0.9 -13.8 -3.9 -26.3 -5.7 -39.9 -5.7 -22.5 0 -34 4.5 -34 13.2 0 4.9 2.8 5.8 27.5 8.9 13.3 1.7 19.7 3 25.3 5.1 15.5 5.7 21.2 12.1 21.2 23.9 0 13.6 -6.5 27.8 -16.4 36 -10.7 8.9 -29.1 14.6 -48.2 14.9 -5.4 0.1 -10.8 0.3 -11.9 0.5 -1.1 0.1 -5.6 0.1 -10 -0.1z"/>
  <path d="M682.5 474.5 c-24 -4.2 -35 -15.6 -36 -37 -1 -22.8 9.9 -53.3 23.9 -66.7 4.1 -4 13.2 -10.1 17.6 -11.8 1.9 -0.7 4 -1.7 4.5 -2.1 0.6 -0.3 5.1 -1.7 10 -3 8 -2 11.3 -2.2 29.1 -2.2 18.8 0.1 28.3 0.9 41 3.4 l5.1 1 0.7 12 c0.4 6.6 0.4 12.5 0 13 -0.3 0.6 -1.3 0.7 -2.3 0.4 -18 -7 -42.5 -8.8 -57.6 -4.3 -6 1.8 -13.7 7.2 -17.3 12.2 -8.1 11.2 -13.1 32.4 -11.5 48.8 0.8 8.2 5.2 13.2 12.9 14.8 7.1 1.5 26.6 -0.4 29.3 -2.9 1.3 -1.1 2.7 -5.8 4.5 -14.6 1.4 -7.1 3.1 -13.4 3.6 -13.9 1.5 -1.5 30.8 -1.6 32 -0.2 0.5 0.7 0.5 2.9 -0.1 5.6 -0.6 2.5 -2.6 11.9 -4.5 21 -3.6 17.2 -4.5 19.1 -9.9 20.3 -1.1 0.3 -4.5 1.2 -7.5 2 -3 0.8 -9.1 2.1 -13.5 2.7 -4.4 0.7 -10 1.6 -12.5 2 -6.6 1.3 -33.4 0.9 -41.5 -0.5z"/>
  <path d="M394.5 474 c-0.3 -0.5 0.1 -4.2 0.9 -8.2 0.9 -4 2.5 -11.3 3.5 -16.3 1.1 -4.9 3.3 -15.7 5 -24 1.7 -8.2 4.6 -22.6 6.6 -31.8 1.9 -9.3 3.5 -17.1 3.5 -17.3 0 -0.2 -8.3 -0.4 -18.4 -0.4 -17 0 -20.8 -0.5 -18.8 -2.4 0.4 -0.4 1.4 -4.4 2.3 -8.9 l1.5 -8.2 59.7 -0.3 c51.5 -0.2 59.7 0 59.7 1.2 0 1.4 -2.5 13.2 -3.6 16.8 -0.5 1.6 -2.5 1.8 -19.2 2 l-18.7 0.3 -2.7 13.5 c-1.6 7.4 -3.2 15.5 -3.8 18 -7 33.6 -11.3 54.5 -12.1 59 -0.6 3 -1.5 6.1 -2.1 6.8 -1.3 1.5 -42.3 1.8 -43.3 0.2z"/>
  <path d="M774.6 472.1 c-0.4 -0.5 2 -4.9 5.2 -9.8 3.3 -4.8 11 -16.7 17.2 -26.3 6.3 -9.6 15 -23.1 19.5 -30 19.3 -29.6 27.3 -41.8 30.5 -46.7 l3.3 -5.3 20.3 0 c18.5 0 20.3 0.2 20.7 1.8 0.3 0.9 1 4 1.7 6.7 0.6 2.8 1.5 6.6 2 8.5 0.5 1.9 2.3 9.4 4 16.5 1.7 7.2 3.5 14.6 4 16.5 0.5 1.9 1.8 7.6 3 12.5 1.2 5 2.5 10.6 3 12.5 0.5 1.9 1.8 7.3 2.9 12 1.1 4.7 3.2 13.4 4.6 19.4 2.2 8.9 2.4 11 1.3 11.7 -0.7 0.5 -11.2 0.8 -23.2 0.6 l-21.9 -0.2 -1.3 -4 c-0.7 -2.2 -1.9 -6 -2.6 -8.5 l-1.3 -4.5 -24 -0.1 c-13.2 0 -24.8 0.2 -25.7 0.6 -1 0.3 -4.2 4.1 -7.1 8.5 l-5.3 8 -15.1 0.3 c-8.8 0.1 -15.4 -0.1 -15.7 -0.7z m87.1 -38.7 c0.5 -1.3 -1.8 -12.5 -4.7 -23.4 -0.5 -1.9 -1.2 -4.8 -1.5 -6.3 -0.3 -1.6 -1.1 -2.7 -1.8 -2.5 -2.4 0.8 -22.2 31.1 -21.3 32.6 0.3 0.5 6.9 0.9 14.6 0.9 11.2 0 14.3 -0.3 14.7 -1.3z"/>
  <path d="M84.4 338.3 c-7.1 -15.4 -7.4 -16 -10.6 -24.6 -6.9 -18.7 -11.4 -34.2 -13.8 -47.7 -5.7 -31.6 -4.9 -57.7 2.5 -83 2.5 -8.4 6.7 -19 7.6 -19 0.8 0 32.3 13.9 47.7 21.1 4.6 2.2 8.6 3.9 8.9 3.9 0.2 0 2.8 1.1 5.6 2.4 2.9 1.3 8.2 3.8 12 5.5 3.7 1.7 7.2 3.1 7.7 3.1 0.6 0 1 0.6 1 1.4 0 1 -0.8 1.3 -2.2 1.1 -3.6 -0.7 -22.8 -0.8 -23.5 -0.2 -0.7 0.8 -3 12.5 -4.4 22.7 -1.5 11.1 -1.1 42.9 0.6 53.5 2.1 12.7 3.8 20.4 6.5 30 0.6 2.2 1.4 5 1.7 6.3 0.3 1.2 0.9 2.5 1.4 2.8 0.5 0.3 0.9 1.4 0.9 2.5 0 1 0.4 2.7 0.9 3.7 0.8 1.6 1.9 4.2 4 9.5 0.5 1.2 2 4.6 3.4 7.6 1.4 3 2.4 5.8 2.1 6.3 -0.3 0.4 -12.9 0.8 -28 0.8 l-27.5 0 -4.5 -9.7z"/>
  <path d="M103.8 168.2 c-16.4 -7 -29.8 -13 -29.8 -13.4 0 -1.2 9.9 -16.6 15.8 -24.7 10.8 -14.7 29.1 -32 45.5 -43 13.2 -8.8 31.5 -18.4 44.2 -23.1 3.3 -1.2 6.9 -2.6 8 -3 7.4 -3 14.5 -5.3 25 -8 6.6 -1.8 13.2 -3.6 14.8 -4 2.5 -0.8 3.4 -0.3 11 7.3 7.6 7.6 36.1 37 45.2 46.6 4.8 5.1 4.6 5 -14.9 -5 l-15.3 -7.7 -11.9 3.9 c-6.5 2.2 -13.7 4.8 -15.9 5.9 -2.2 1 -6.7 3 -10 4.5 -25.1 11.3 -49.5 31.7 -66.9 56 -3 4.2 -7.2 10.6 -9.3 14.1 -2 3.5 -4.2 6.4 -4.8 6.4 -0.5 0 -14.4 -5.8 -30.7 -12.8z"/>
  <path d="M646 170.5 c0 -0.8 1.4 -1.7 3.5 -2.1 4 -0.7 4.9 -3.4 1 -2.9 -1.9 0.2 -2.5 -0.2 -2.5 -1.6 0 -2.1 2.2 -2.4 7.9 -1.3 2.8 0.6 3.1 1 3.1 4.4 0 3.4 -0.3 3.8 -3.1 4.4 -5.6 1.1 -9.9 0.7 -9.9 -0.9z"/>
  <path d="M623.5 140.9 c-2.2 -0.4 -6.6 -0.9 -9.8 -1 -3.2 -0.1 -6 -0.5 -6.2 -0.9 -0.2 -0.3 -2.9 -0.8 -6 -0.9 -13 -0.5 -13.3 -0.6 -31.5 -9.1 -31.4 -14.7 -67.2 -27.7 -91 -32.9 -6.5 -1.5 -12.5 -3.3 -13.5 -4.1 -1.1 -0.9 -2 -26.3 -1.1 -27.9 0.9 -1.5 33.3 8.7 57.4 18 17.5 6.8 52 21.8 57.2 24.9 0.8 0.5 5.1 2.7 9.5 4.9 17.8 8.9 49.4 27.7 49.5 29.4 0 0.9 -8.6 0.7 -14.5 -0.4z"/>
  <path d="M453.5 104.7 c-1.6 -2 -4.4 -6.8 -7.3 -12.5 -2.2 -4.3 -3.3 -5.4 -6.2 -6.2 -4.7 -1.2 -14 -2.9 -22.3 -4 -3.7 -0.5 -7.5 -1.1 -8.5 -1.4 -0.9 -0.3 -4.7 -0.6 -8.5 -0.7 -3.7 -0.1 -6.9 -0.5 -7.2 -0.9 -0.2 -0.4 -4.2 -0.9 -8.7 -1.1 -13.3 -0.6 -71 -0.2 -74.8 0.5 -1.9 0.4 -7.1 1.1 -11.5 1.6 -4.4 0.6 -10.7 1.4 -14 1.9 -3.3 0.4 -6.6 0.5 -7.4 0.1 -1.8 -1 -34.3 -33.2 -33.8 -33.6 0.3 -0.3 26.7 -3.6 43.2 -5.3 11.7 -1.3 59.1 -0.8 75 0.7 14.1 1.3 38.6 4.6 49.5 6.7 18.3 3.4 39.9 8.1 40.5 8.7 0.2 0.2 0.6 3.7 0.9 7.8 0.3 4.1 0.8 9.5 1 12 0.7 7.2 1.7 27 1.4 27 -0.2 -0.1 -0.7 -0.6 -1.3 -1.3z"/>
 </g>
 <g fill="#000000">
  <path d="M532.7 645.3 c-1.5 -1.4 -0.6 -2.1 2.1 -1.8 1.5 0.2 3.3 0.4 4 0.4 0.6 0.1 1.2 0.6 1.2 1.1 0 1.1 -6.3 1.4 -7.3 0.3z"/>
  <path d="M511.5 643.4 c-17.7 -2.2 -40.6 -5.4 -45.5 -6.5 -2.5 -0.5 -9.2 -1.9 -15 -3 -15.3 -3 -33.6 -7.5 -49 -11.9 -14.2 -4.1 -47.4 -15.2 -52.5 -17.5 -1.6 -0.7 -6.6 -2.8 -11 -4.5 -4.4 -1.7 -10.2 -4.2 -13 -5.4 -2.7 -1.2 -6.6 -2.9 -8.5 -3.6 -4.7 -1.9 -38.5 -18.9 -48 -24.1 -7 -3.9 -10.7 -6.1 -28.5 -16.9 -12.5 -7.7 -36.7 -24.1 -49 -33.3 -15.5 -11.7 -36.5 -28.9 -36.5 -29.9 0 -0.4 5 -0.8 11.2 -0.8 l11.1 0 6.1 5.2 c3.4 2.9 6.8 5.9 7.6 6.7 1.4 1.4 15.3 12.4 23.4 18.6 9.5 7.3 30.4 22 37 26 10.8 6.6 19.4 12 21.8 13.6 1.5 1.1 3 1.9 3.4 1.9 0.3 0 1.8 0.8 3.2 1.8 7.6 5.3 45.4 24.2 64.9 32.6 43.2 18.5 80.4 30.2 132.8 41.7 8.2 1.8 26.4 5 39 6.9 7.2 1 13.1 1.9 13.3 1.9 0.1 0.1 0.2 0.6 0.2 1.1 0 1.3 -4.8 1.1 -18.5 -0.6z"/>
  <path d="M1043.2 350.2 c-1.6 -0.2 -2.9 -1.8 -4.4 -5.2 -1.2 -2.7 -2.8 -5.2 -3.5 -5.4 -0.8 -0.3 -4.6 -0.1 -8.6 0.5 -4 0.6 -11.2 1.2 -16.2 1.4 -4.9 0.3 -12.4 0.7 -16.5 1.1 -24.4 2 -125.5 2 -136 0 -1.4 -0.3 -7.2 -0.7 -13 -1 -5.8 -0.3 -11.2 -0.7 -12 -1 -0.8 -0.3 -5.2 -0.7 -9.8 -1 -4.6 -0.3 -8.7 -0.8 -9.1 -1 -0.4 -0.3 -3.5 -0.7 -6.8 -1 -3.4 -0.3 -7.2 -0.8 -8.5 -1.1 -1.3 -0.3 -4.6 -0.8 -7.3 -1 -2.8 -0.2 -7 -0.8 -9.5 -1.4 -2.5 -0.5 -6.2 -1.2 -8.2 -1.6 -2.1 -0.3 -3.8 -1 -3.8 -1.5 0 -1.1 14.4 -0.5 24.7 1 3.7 0.5 7 0.7 7.5 0.4 0.5 -0.3 3.9 -0.1 7.6 0.5 3.7 0.6 11 1.3 16.2 1.6 5.2 0.3 14.2 0.9 20 1.4 5.7 0.5 10.7 0.8 11.1 0.5 0.4 -0.2 5.1 0.1 10.6 0.6 17 1.8 27.3 2 27.3 0.6 0 -0.8 -2.8 -4.4 -6.2 -8.2 -11.1 -12.2 -16.8 -19.2 -16.8 -20.7 0 -2.1 3.2 -5.3 5.5 -5.5 1.1 0 24.7 -0.3 52.5 -0.6 27.8 -0.3 56.1 -0.8 63 -1.2 6.9 -0.3 16.3 -0.8 21 -0.9 10.1 -0.3 14 -1.2 14 -3.2 0 -4.7 -10.6 -16.9 -20.5 -23.6 -8.5 -5.7 -27.7 -15.5 -36 -18.3 -3.8 -1.3 -8.9 -3 -11.2 -3.8 -2.2 -0.9 -5.2 -1.8 -6.5 -2 -1.2 -0.3 -6.1 -1.7 -10.8 -3.2 -8.3 -2.6 -14.9 -4.1 -20.1 -4.8 -1.4 -0.2 -3.6 -0.9 -4.8 -1.5 -1.2 -0.7 -2.9 -1.1 -3.9 -1 -0.9 0.1 -2.8 -0.1 -4.2 -0.5 -1.4 -0.4 -3.6 -0.8 -5 -1 -10.6 -1.5 -12.5 -4.1 -2.3 -3.1 3.7 0.3 6.9 0.8 7.3 1 0.3 0.2 3.3 0.6 6.7 0.9 3.4 0.3 7.3 1 8.7 1.6 1.4 0.5 3.2 0.7 4.1 0.4 0.8 -0.3 2.9 -0.1 4.7 0.5 1.8 0.6 4.9 1.2 6.8 1.5 5.4 0.6 14 2.5 15.2 3.2 0.6 0.4 2.5 0.9 4.2 1.1 1.7 0.2 5.1 1 7.6 1.8 2.5 0.8 5 1.5 5.5 1.6 0.6 0 2.4 0.6 4 1.3 1.7 0.7 3.2 1.3 3.5 1.4 2.4 0.3 6.9 1.7 8.5 2.5 1.1 0.6 2.5 1.2 3.2 1.3 0.7 0.1 2.7 0.9 4.4 1.8 1.8 0.9 3.6 1.6 4 1.6 2.2 0 21.1 11.9 26.7 16.7 10.4 9.1 13 13 13.7 19.9 0.3 3.2 1 7.5 1.5 9.4 0.8 3 1.9 8.9 2.2 11.7 0 0.5 0.5 1.9 1.1 3.3 0.6 1.4 1.1 7.9 1.3 14.5 0.1 6.6 0.3 13.1 0.5 14.4 0.4 2.5 -0.7 3 -4.9 2.3z"/>
  <path d="M41 347 c-1.5 -1 -12.6 -26.2 -16.4 -37.5 -3.2 -9.4 -8.1 -26.7 -9.4 -33.5 -0.6 -3 -1.6 -7.7 -2.1 -10.5 -6 -30 -3.4 -70.1 6.5 -99.5 8.2 -24.4 23.8 -49.2 43.4 -69 11.1 -11.2 12.8 -12.8 21.5 -19.6 14 -10.8 40.3 -25.6 56.5 -31.8 4.1 -1.6 8.9 -3.4 10.5 -4.1 12.1 -5.2 44.7 -13.8 66 -17.4 26.5 -4.5 60.5 -7.4 60.5 -5.3 0 0.8 -1.9 1.2 -4.7 1.2 -2.7 0 -6.6 0.5 -8.8 0.9 -2.2 0.5 -5.8 1.2 -8 1.5 -8.7 1.3 -11.1 1.8 -13.5 2.6 -1.4 0.4 -4.7 1.2 -7.5 1.8 -9.5 2 -19 4.3 -23.5 5.6 -2.5 0.8 -7.9 2.3 -12 3.5 -4.1 1.2 -8.3 2.6 -9.2 3.1 -1 0.6 -2.5 1 -3.3 1 -0.8 0 -2.3 0.4 -3.3 0.9 -2.2 1.1 -5.1 2.3 -13.2 5.4 -39 14.9 -71.9 37.8 -95.8 66.5 -5 6 -15.2 20.5 -15.2 21.6 0 0.3 -1.3 2.7 -2.8 5.3 -3.6 6.2 -9.8 20.5 -12.7 29.7 -13.3 41.6 -11.9 87 4.2 137.1 2.5 7.7 5.6 16.5 7 19.5 4.3 9.6 6.5 14.4 7.4 16.2 1.9 3.7 1.1 4.6 -4.3 5.3 -5.6 0.6 -16.4 0.3 -17.8 -0.5z"/>
  <path d="M666 340.4 c0 -2.1 -6.3 -15.5 -10.3 -21.9 -10.4 -16.7 -25.1 -29.6 -39.7 -34.8 -6.4 -2.2 -9.5 -2.7 -18 -2.8 -15.7 -0.3 -29.5 5.8 -42.7 18.9 -4 3.9 -7.3 7.7 -7.3 8.2 0 0.6 -0.4 1 -0.9 1 -2.7 0 5.4 -14.2 11.9 -20.8 12.7 -12.8 28.5 -18.9 46.4 -18 16.3 0.9 31.3 9.1 41.9 23.1 5 6.5 12 19.9 14.7 27.7 1.2 3.6 2.5 7.4 3 8.5 0.5 1.1 1.1 3.4 1.4 5 0.3 1.7 0.8 4 1.2 5.3 0.4 1.3 0.2 2.2 -0.5 2.2 -0.6 0 -1.1 -0.7 -1.1 -1.6z"/>
  <path d="M869.5 331.9 c-4.4 -0.4 -10.9 -0.9 -14.5 -1.3 -3.6 -0.3 -9 -0.6 -12 -0.7 -3 0 -8 -0.5 -11 -0.9 -3 -0.5 -9.8 -1.1 -15.1 -1.4 -5.3 -0.3 -10.2 -0.8 -11 -1 -0.8 -0.3 -5.9 -0.7 -11.4 -1 -5.6 -0.3 -10.7 -0.7 -11.5 -1 -0.8 -0.3 -4.2 -0.7 -7.5 -1 -24.5 -2.1 -33.5 -4.8 -46.5 -13.7 -9.3 -6.4 -22.1 -20.1 -20.1 -21.3 0.6 -0.4 4.1 -0.4 7.8 -0.1 3.7 0.3 14.2 1 23.3 1.5 9.1 0.5 19.9 1.2 24 1.5 4.1 0.3 11.6 0.7 16.5 1 5 0.3 19.6 1.2 32.5 2 12.9 0.7 28.2 1.6 34 1.9 11.9 0.7 21.9 1.6 23.8 2.2 1 0.3 0.4 1.5 -1.7 4.1 -3.4 4.2 -3.9 7.4 -1.5 9.4 0.9 0.7 3.7 4 6.2 7.4 2.6 3.3 5.5 6.9 6.5 8 1 1.1 2.3 2.7 2.8 3.7 1 1.8 0 1.9 -13.6 0.7z"/>
  <path d="M244 321.2 c0 -5.7 -7.1 -18.6 -13.1 -23.6 -9.9 -8.4 -24.5 -9.9 -33.9 -3.6 -1.4 0.9 -3.2 1.9 -4.1 2.3 -2.2 0.7 -8.1 8.1 -11.3 14.2 -2.3 4.2 -2.6 4.5 -2.2 2 1.6 -10.4 9.4 -22.2 17.3 -25.9 2.1 -1.1 4.9 -2.5 6.3 -3.1 4.8 -2.4 21.3 -0.3 24 3 0.7 0.8 1.8 1.5 2.4 1.5 1.6 0 5.6 4.4 8.9 9.5 4.2 6.6 9.2 25.5 6.7 25.5 -0.5 0 -1 -0.8 -1 -1.8z"/>
  <path d="M163.1 316.8 c-0.7 -2.1 -1.9 -6.9 -4 -16.3 -1.7 -7.5 -1.3 -19.4 0.9 -25.9 1.8 -5.5 3.1 -7.4 8.7 -12.7 6.5 -6 13.1 -10.7 21.5 -15.2 5.4 -2.9 13.1 -7.9 13.9 -9.1 0.4 -0.5 0.3 -2 -0.1 -3.5 -0.4 -1.4 -0.9 -3.3 -1.1 -4.1 -0.3 -1 1.1 -1.8 5.1 -2.6 8.7 -1.9 18.3 -4.5 20.5 -5.4 1.1 -0.5 4.9 -1.8 8.5 -3 3.6 -1.2 8.3 -3 10.6 -4.1 2.2 -1 4.8 -1.9 5.7 -1.9 0.9 0 1.7 -0.4 1.7 -1 0 -0.5 1.2 -1.3 2.8 -1.6 1.5 -0.4 4.1 -1.5 5.8 -2.4 1.7 -1 4.4 -2.1 6.1 -2.4 1.8 -0.4 3.7 -1.4 4.4 -2.2 0.6 -0.8 1.7 -1.4 2.4 -1.4 1.3 0 11.5 -4.2 14.7 -6 1 -0.6 2.4 -1 3.2 -1 0.7 0 1.9 -0.6 2.5 -1.4 0.7 -0.8 2.7 -1.8 4.4 -2.1 1.8 -0.4 4 -1.4 5 -2.3 0.9 -0.8 1.7 -1.2 1.7 -0.9 0 0.4 2.6 -0.7 5.7 -2.3 3.2 -1.7 6.7 -3 7.9 -3 1.2 0 2.7 -0.6 3.3 -1.4 0.7 -0.8 2.7 -1.8 4.4 -2.2 1.8 -0.4 4.8 -1.5 6.7 -2.5 1.9 -1.1 4 -1.9 4.7 -1.9 0.8 0 2.1 -0.4 3.1 -0.9 3.3 -1.7 6.8 -2.9 20.2 -7.1 7.4 -2.3 15.3 -4.8 17.5 -5.5 2.2 -0.7 5.8 -1.6 8 -2 2.2 -0.4 5.4 -1 7 -1.5 1.7 -0.4 5.7 -1.3 9 -2 3.3 -0.7 7.6 -1.7 9.5 -2.3 1.9 -0.6 4.6 -1 6 -0.9 1.4 0.1 5 -0.3 8 -0.9 3 -0.7 6.9 -1.1 8.5 -1 1.7 0 4.6 -0.4 6.5 -0.9 10.9 -3.3 119 -3.3 139.8 0 4 0.6 8 0.9 8.9 0.6 0.9 -0.4 5.2 0.1 9.6 1 4.3 0.8 9 1.3 10.3 1 1.3 -0.4 4.9 0.1 7.9 0.9 3 0.9 6.3 1.4 7.3 1.1 1 -0.3 4.2 0 7.2 0.7 3 0.8 7.4 1.4 9.7 1.5 2.3 0 5.2 0.6 6.3 1.2 1.2 0.6 2.8 0.9 3.6 0.6 0.8 -0.3 2.7 -0.1 4.2 0.5 1.5 0.6 4.5 1.3 6.7 1.5 2.2 0.2 6.5 1.2 9.5 2.1 3 0.9 5.8 1.6 6.1 1.5 0.9 -0.2 15.7 4.6 17.2 5.5 0.7 0.4 1.4 0.8 1.7 0.8 1.2 0.2 5.7 1.8 8.5 3 1.7 0.7 4.8 2 7 3 2.2 1 5.6 2.4 7.5 3.2 7.3 3.1 45.1 22.3 51.5 26.2 3.7 2.3 6.9 4.1 7.1 4.1 0.8 0 25.9 15.3 27.4 16.6 1.2 1.2 -2 1.4 -21.5 1.4 -12.7 0 -27.7 0.2 -33.5 0.5 -5.8 0.3 -38.8 0.7 -73.3 0.9 -34.6 0.2 -63.1 0.6 -63.4 1 -0.8 0.7 0 1 14.2 4.6 18.6 4.9 22.5 6.1 22.5 7.1 0 1 -5.7 0.4 -14 -1.7 -3 -0.7 -10.4 -2.2 -16.5 -3.3 -6 -1.1 -14.1 -2.8 -18 -3.8 -5.7 -1.4 -12 -1.7 -33.8 -1.8 l-26.7 0 -16.3 -16.1 c-14.2 -14 -24.2 -23.2 -32.6 -30 -1.3 -1 -3.8 -3 -5.5 -4.4 -1.7 -1.4 -5.5 -4.3 -8.3 -6.5 -4.9 -3.6 -6.4 -5.5 -4.5 -5.5 3.6 -0.1 12.5 -1.3 16 -2.1 2.4 -0.5 4.7 -0.7 5.2 -0.4 0.4 0.3 6.4 0 13.2 -0.6 12.1 -1.1 82.6 -1.5 90.1 -0.5 2.1 0.3 10.9 0.8 19.5 1.1 8.7 0.3 18.3 1 21.5 1.6 5.6 1 12.3 0.4 13.2 -1.1 0.5 -0.9 -3.8 -1.7 -9.9 -1.9 -2.2 -0.1 -4.3 -0.4 -4.8 -0.8 -0.8 -0.4 -12.7 -1.7 -25.8 -2.8 -1.9 -0.2 -5.2 -0.6 -7.2 -0.9 -2 -0.4 -6.5 -0.8 -10.1 -1 -3.5 -0.2 -6.8 -0.6 -7.4 -0.9 -0.5 -0.3 -6.1 -0.8 -12.4 -1.1 -6.2 -0.3 -15.9 -1 -21.4 -1.5 -14 -1.3 -82.6 -0.7 -88.9 0.8 -2.7 0.7 -5.6 0.9 -6.4 0.6 -0.8 -0.3 -5.7 0.2 -10.9 1 -5.2 0.8 -9.8 1.3 -10.3 1 -0.5 -0.3 -3.5 0.1 -6.9 0.9 -3.3 0.8 -6.2 1.2 -6.5 0.9 -0.2 -0.3 -2.7 0.2 -5.4 1.1 -2.7 0.9 -5.6 1.4 -6.4 1.1 -0.8 -0.3 -2.8 -0.1 -4.3 0.5 -1.6 0.6 -5.2 1.3 -7.9 1.6 -2.8 0.3 -5.6 1 -6.3 1.5 -0.6 0.6 -1.7 0.8 -2.2 0.4 -0.6 -0.3 -2.4 0.1 -4.1 1 -1.7 0.9 -3.5 1.3 -4 1 -0.5 -0.3 -2.3 0.1 -4 1 -1.7 0.9 -3.5 1.3 -4 1 -0.5 -0.3 -2.3 0.1 -4 1 -1.6 0.8 -3.2 1.5 -3.5 1.4 -0.6 -0.1 -4.9 1.4 -9 3.2 -1.1 0.4 -4.2 1.5 -7 2.4 -2.7 0.9 -6.6 2.3 -8.5 3.2 -1.9 0.8 -4.6 2 -6 2.5 -1.4 0.6 -3.3 1.4 -4.2 1.9 -1 0.5 -2.2 0.9 -2.8 0.9 -0.6 0 -3.2 1 -5.8 2.1 -2.6 1.2 -6.7 3 -9.2 4.1 -5.6 2.4 -12.4 5.5 -17.3 7.9 -2.2 1 -4.3 1.9 -4.8 1.9 -0.5 0 -3.9 1.4 -7.6 3.1 -10.5 4.8 -13.1 5.9 -13.7 5.9 -0.3 0 -3.1 1.2 -6.3 2.6 -8 3.6 -9.4 4.2 -12.3 4.9 -1.4 0.4 -3.8 1.3 -5.5 2 -1.6 0.7 -4.6 1.8 -6.5 2.5 -1.9 0.7 -4.4 1.5 -5.5 2 -5.5 2 -8.9 2.9 -9.6 2.4 -0.5 -0.3 -2.2 0.2 -3.9 1.1 -1.7 0.9 -3.5 1.3 -4 1 -1.1 -0.6 -8 2.5 -8 3.7 0 0.5 0.5 1.7 1.2 2.7 1.4 2.2 0.5 5 -1.9 5.7 -5.8 1.7 -24 12.3 -32.4 18.9 -11.9 9.3 -14.4 17.3 -14.4 44.3 0.1 9.4 -0.2 12.2 -1.2 12.2 -0.8 0 -1.7 -1 -2.2 -2.2z"/>
  <path d="M497.9 238.8 c-4.1 -3.8 -5.8 -6.3 -6.3 -8.8 -0.7 -3.9 -4.5 -8.7 -8.2 -10 -1.3 -0.6 -9.7 -0.8 -18.7 -0.6 -17.4 0.3 -22 1.4 -25.1 5.8 -2.6 3.7 -1.9 6.5 2.7 11.2 l4.3 4.3 -37.4 0.6 c-57.9 1.1 -104 0.9 -106.4 -0.4 -2.7 -1.4 -5.6 -8.3 -6.4 -15.1 -0.7 -6.1 1 -10.2 5 -11.9 1.2 -0.5 4.4 -2.2 7.1 -3.9 21.3 -12.9 62.7 -29.7 88.5 -36 25.8 -6.4 41.9 -5.8 58.5 2.1 4.6 2.2 20.3 14 33.1 24.9 13.4 11.3 39.4 38 39.4 40.4 0 0.3 -4.5 0.6 -9.9 0.6 -5.6 0 -10.3 0.4 -10.6 1 -1.3 2.1 -4.2 0.8 -9.6 -4.2z"/>
 </g>
 <g fill="#044d94">
  <path d="M260 474.5 c-14.7 -2.7 -22.7 -6.8 -29 -14.8 -5.8 -7.4 -6.5 -17.3 -2.5 -36.2 3.2 -15.1 12.5 -60.8 13.4 -65.5 l0.6 -3.5 21.4 -0.3 c11.8 -0.1 21.8 0.1 22.2 0.5 0.7 0.8 -0.1 5.3 -5.1 29.3 -1.2 5.8 -2.6 12.5 -3.1 15 -0.4 2.5 -2.3 11 -4 19 -5.5 25 -5.1 29.2 3 33.2 3.7 1.8 6.7 2.4 14.8 2.6 9 0.3 10.9 0.1 14.9 -1.8 8 -3.9 12.3 -12.7 16.3 -33.5 1.1 -5.5 4.3 -21 7.1 -34.5 2.8 -13.5 5.4 -25.7 5.7 -27.2 l0.6 -2.8 15.8 0 c17.9 0 17.1 -0.4 14.9 7.9 -0.5 2 -1.6 7.2 -2.4 11.6 -0.9 4.4 -2.5 12.3 -3.6 17.5 -2.4 10.8 -2.8 12.7 -6.4 30.5 -4.5 21.7 -8.5 30.6 -17.4 38.5 -12.8 11.4 -29.1 16.1 -55.7 15.8 -8.2 0 -17.9 -0.6 -21.5 -1.3z"/>
  <path d="M60.6 472.1 c-0.4 -0.5 2.5 -5.8 6.4 -11.8 22.3 -34.3 52.7 -81 62.7 -96.6 l6.3 -9.7 20.2 0.2 20.2 0.3 0.9 3.5 c0.5 1.9 1.2 5.1 1.7 7 0.5 1.9 1.3 5.3 1.9 7.5 0.6 2.2 2 8.1 3.1 13 1.1 5 2.5 10.6 3 12.5 0.5 1.9 1.8 7.6 3 12.5 1.2 5 2.5 10.6 3 12.5 0.5 1.9 2.3 9.4 4 16.5 1.7 7.2 4 16.9 5.2 21.6 1.2 4.8 1.8 9.4 1.5 10.3 -0.6 1.5 -3 1.6 -22.9 1.4 l-22.2 -0.3 -1.2 -3.5 c-0.6 -1.9 -1.8 -5.7 -2.6 -8.5 l-1.4 -5 -21.4 -0.3 c-30.4 -0.5 -28.9 -0.9 -35.5 9.3 l-5.5 8.3 -14.9 0.1 c-8.8 0.1 -15.2 -0.2 -15.5 -0.8z m86.8 -40.6 c-0.1 -3.3 -1.7 -10.8 -5.4 -25.5 -1.2 -4.6 -2.9 -7.3 -3.6 -5.5 -0.2 0.6 -5.1 8.2 -10.9 16.9 -7.8 11.7 -10.2 16.2 -9.3 16.8 0.7 0.4 7.6 0.7 15.3 0.5 l14 -0.2 -0.1 -3z"/>
  <path d="M888.3 234.7 c-5.3 -1.2 -5.8 -3.2 -0.5 -2.3 7.7 1.4 9.2 1.8 9.2 2.7 0 1.1 -3.1 1 -8.7 -0.4z"/>
 </g>
 <g fill="#222122">
  <path d="M529.5 645.3 c-7.2 -0.6 -10.5 -1.4 -10.5 -2.5 0 -1.3 14 -0.2 15.4 1.2 1.2 1.2 2.9 1.3 2.2 0.1 -0.5 -0.8 9.4 0.6 10.3 1.5 0.5 0.4 -11 0.3 -17.4 -0.3z"/>
  <path d="M504.4 642.1 c-4.7 -0.9 -1.9 -2.7 3.1 -2 2.2 0.3 3 0.7 1.7 0.8 -1.3 0 -2 0.6 -1.7 1.1 0.3 0.6 0.5 0.9 0.3 0.9 -0.2 -0.1 -1.7 -0.4 -3.4 -0.8z"/>
  <path d="M950.8 526.9 c-0.3 -1 3.2 -19.2 5.7 -29.6 0.4 -1.8 1.3 -2.3 3.5 -2.3 1.7 0 3 0.3 3 0.8 0 1 -1.8 11 -3 16.2 -0.5 2.5 -1.2 6.3 -1.6 8.5 -0.3 2.2 -1.1 4.5 -1.7 5.1 -1.9 1.9 -5.5 2.6 -5.9 1.3z"/>
  <path d="M972.3 526.3 c-8.3 -4.2 -8.4 -20.6 -0.1 -27.9 3.8 -3.4 10.1 -4.9 14.7 -3.5 4.3 1.2 8.4 5.5 7.9 8 -0.5 2.7 -4.7 2.5 -6.9 -0.3 -4.1 -5.2 -11.6 -2 -14.3 6.1 -2.1 6.1 -2 7.3 0.7 10.5 3.6 4.3 6 4.4 10 0.3 5.2 -5.4 11.1 -4.3 7 1.3 -5 6.7 -12.3 8.8 -19 5.5z"/>
  <path d="M1018.3 526.5 c-1.7 -0.7 -3.9 -2.7 -4.7 -4.4 -1.6 -3.1 -2.2 -13.2 -0.8 -14.5 0.4 -0.4 0.7 -1.1 0.7 -1.4 0 -0.4 0.9 -2.2 2 -4 4.2 -7.2 16.6 -9.7 23.1 -4.7 8.1 6.2 4.7 23.7 -5.6 29 -3.6 1.9 -10.5 1.9 -14.7 0z m14.3 -8 c5.1 -5.7 5.3 -12.6 0.5 -17 -2 -1.8 -2.5 -1.8 -6.4 -0.5 -7.2 2.6 -10.8 11.7 -7 18.1 2.9 5 8.3 4.7 12.9 -0.6z"/>
  <path d="M1050.9 526.5 c-2.6 -1.4 -5.7 -7 -4.5 -8.2 0.3 -0.3 1.7 -0.8 3.1 -0.9 1.9 -0.2 2.9 0.4 3.7 2.1 2 4.5 12.3 3.9 11.6 -0.7 -0.2 -1.6 -2.1 -3.2 -6.2 -5.4 -8.6 -4.5 -10.8 -9.7 -6.2 -14.7 3 -3.2 6.3 -4.1 12.4 -3.4 3.4 0.4 5.3 1.2 7 3.2 4.4 5.2 -0.1 9 -4.8 4 -2.6 -2.8 -5.7 -3.2 -8.6 -1.1 -2.7 2.1 -1.1 4.3 5.6 7.7 3 1.5 6 3.6 6.7 4.5 2.3 3.2 1.6 7.3 -2.1 11 -3.1 3.1 -3.9 3.4 -9.2 3.4 -3.3 -0.1 -7.1 -0.7 -8.5 -1.5z"/>
  <path d="M831.4 525.5 c-3 -1.6 -5.4 -5.1 -5.4 -8 0 -1 1 -1.5 3 -1.5 2.3 0 3.3 0.6 4.2 2.5 2.2 4.8 12.3 4.1 11.6 -0.8 -0.2 -1.5 -2.1 -3.2 -6.1 -5.3 -7.2 -3.8 -7.8 -4.4 -8.4 -8.7 -0.3 -2.6 0.1 -4.1 2 -6.2 4.5 -5.3 17.6 -4.3 20.7 1.6 0.9 1.5 0.8 2.4 -0.1 3.5 -1.7 2 -3.2 1.7 -5.9 -1.1 -2.7 -2.9 -5.6 -3.2 -8.8 -0.9 -3 2 -2 3.2 6.3 7.9 3.4 1.9 6.6 4.2 6.9 5.1 1.2 3.2 0.5 6.5 -2.2 9.5 -2.3 2.6 -3.6 3.1 -8.7 3.5 -4.3 0.3 -6.9 0 -9.1 -1.1z"/>
  <path d="M856.3 525.7 c-0.2 -0.4 0 -2.9 0.7 -5.5 2.7 -11.6 4.1 -17.9 4.6 -20.7 0.9 -5.6 0.6 -5.5 12.8 -5.5 6.4 0 11.7 0.4 12.1 1 0.3 0.5 0.1 1.9 -0.5 3 -0.9 1.8 -2.1 2 -9.4 2 l-8.3 0 -0.7 3.2 c-0.8 4.1 0.3 4.8 8.7 4.8 6 0 6.8 0.2 6.5 1.8 -0.3 1.4 -1.6 1.7 -8.5 2 -9.1 0.3 -10.8 1.5 -10.1 7 0.3 2.7 0.4 2.7 9.1 3 8.5 0.3 10 0.9 7.9 3.7 -0.8 1.2 -24.2 1.4 -24.9 0.2z"/>
  <path d="M889.2 526.3 c-2.6 -0.5 -2.5 -1.1 0.8 -15.8 1.1 -4.4 2.2 -9.4 2.5 -11.2 1 -5 2.5 -5.6 11.9 -5.1 4.5 0.3 9.2 1.1 10.3 1.7 2.5 1.3 4.4 6.1 3.6 9.3 -0.7 2.8 -4.2 6.8 -6 6.8 -2.4 0 -2.4 2.5 0.2 7.5 3.2 6.5 3.2 7.5 -0.5 7.5 -2.7 0 -3.3 -0.6 -6.1 -6.5 -1.7 -3.6 -3.7 -6.5 -4.4 -6.5 -0.7 0 -2 -0.3 -2.9 -0.6 -1.6 -0.6 -3.3 2.4 -4.2 7.6 -0.8 4 -1.5 6 -2.2 5.9 -0.4 -0.1 -1.7 -0.4 -3 -0.6z m21 -19.9 c1 -1 1.8 -2.7 1.6 -3.8 -0.3 -1.9 -1 -2.1 -6.8 -2.1 l-6.5 0 -0.3 4.2 -0.3 4.3 5.2 -0.5 c2.9 -0.2 6 -1.1 7.1 -2.1z"/>
  <path d="M928.6 524.8 c-0.3 -1.3 -1 -5.4 -1.6 -9.3 -0.6 -3.8 -1.6 -9.3 -2.2 -12.2 -1.3 -6.2 -0.7 -8.3 2.6 -8.3 2.2 0 2.5 0.6 3.6 7.3 1.9 11.6 2.5 14 3.5 14.4 0.6 0.1 2.6 -2.7 4.5 -6.4 6.5 -12.3 8.7 -15.3 11.5 -15.3 1.4 0 2.5 0.6 2.5 1.3 0 0.6 -3.8 7.7 -8.3 15.7 -8.1 14.3 -8.3 14.5 -11.9 14.8 -3.2 0.3 -3.8 0 -4.2 -2z"/>
  <path d="M997 525.3 c0.1 -1 0.5 -3.6 0.9 -5.8 0.5 -2.2 1.6 -7.6 2.5 -12 2.4 -11.4 3 -12.5 6.7 -12.5 2.8 0 3.1 0.3 2.5 2.3 -0.4 1.2 -0.9 3.6 -1.2 5.2 -0.3 1.7 -0.8 3.7 -1.1 4.5 -0.3 0.8 -0.9 3.3 -1.4 5.5 -0.4 2.2 -1.1 5.4 -1.4 7 -0.3 1.7 -0.8 4 -1.1 5.3 -0.3 1.7 -1.1 2.2 -3.4 2.2 -2.2 0 -3 -0.5 -3 -1.7z"/>
  <path d="M540.2 525.3 c-1.6 -0.3 -2.9 -1.7 -3.9 -4.1 -0.8 -2 -2.1 -5 -2.8 -6.7 -0.7 -1.6 -1.8 -4.5 -2.5 -6.2 -1.2 -3.3 -2.9 -4.4 -3.1 -2 0 0.6 -0.2 1.9 -0.4 2.7 -0.2 0.8 -0.9 4.2 -1.5 7.5 -1.3 6.7 -2.4 8.5 -5.1 8.5 -2.7 0 -2.8 -0.9 -1.3 -8 0.8 -3.6 2.1 -10.1 3 -14.5 1.9 -9.2 2.8 -10.7 6.2 -10.3 2 0.3 3 1.7 5.8 8.7 1.9 4.7 3.4 9.1 3.4 9.8 0 1.5 1.6 1.7 2.5 0.4 0.5 -0.9 1.6 -5.5 3.3 -14.1 0.6 -2.9 1.2 -3.6 3.5 -3.8 2.3 -0.3 2.7 0 2.7 2 0 4.9 -6.2 31.2 -7.2 30.7 -0.2 -0.1 -1.4 -0.4 -2.6 -0.6z"/>
  <path d="M558.3 524.5 c-3.8 -1.6 -6.7 -5.7 -5.9 -8.2 0.9 -2.9 4.3 -2.5 6.6 0.8 1.7 2.3 2.9 2.9 5.9 2.9 4.5 0 7 -2.2 5.5 -4.8 -0.6 -1 -3.3 -2.9 -6 -4.4 -2.7 -1.5 -5.7 -3.7 -6.6 -4.9 -5.7 -6.9 4.2 -16 14.1 -13 4 1.1 8.1 5.1 8.1 7.7 0 2.3 -5.7 1.7 -7 -0.6 -1.3 -2.4 -8.1 -2.8 -9.9 -0.6 -1.3 1.6 1.4 4.2 9.2 8.8 5.6 3.3 6.8 6.6 4.2 11.4 -3 5.5 -11.5 7.9 -18.2 4.9z"/>
  <path d="M582.5 523.9 c-0.4 -1.1 -0.4 -2.3 -0.1 -2.7 0.3 -0.5 1.7 -6.7 3.1 -13.8 1.5 -7.1 3 -13.3 3.5 -13.8 0.5 -0.5 5 -0.7 10.1 -0.4 8.1 0.4 9.4 0.7 11 2.7 2.3 2.8 2.4 7.2 0.5 11 -2.3 4.4 -4.4 5.5 -10.9 5.7 -3.4 0.2 -6.7 0.3 -7.4 0.3 -0.6 0.1 -1.4 1.6 -1.8 3.4 -1.2 6 -2.6 8.5 -5.1 9 -1.7 0.3 -2.5 -0.1 -2.9 -1.4z m20.4 -18.8 c2.8 -2.7 3 -3.2 1.9 -5.1 -1.1 -1.7 -2.1 -2 -5.7 -1.8 -4 0.3 -4.4 0.6 -5.9 4.2 -1.3 3.2 -1.3 3.9 -0.1 4.7 2.7 1.7 6.7 0.9 9.8 -2z"/>
  <path d="M621.3 524.3 c-4.3 -2.2 -5.8 -5.5 -5.8 -13.3 0 -6.1 0.3 -7.2 3.1 -10.7 4.8 -6 10 -8 18.8 -7.1 1 0.1 3.3 1.6 5.2 3.3 3.2 3 3.4 3.7 3.4 9.4 0 14.9 -12.7 24.4 -24.7 18.4z m13.8 -7 c5.4 -6 6.4 -12.9 2.4 -16.8 -2.7 -2.8 -3.6 -3 -8 -1.4 -6.5 2.4 -10.3 13.3 -6.4 18.3 2.9 3.7 8.6 3.6 12 -0.1z"/>
  <path d="M648.8 525.4 c-0.4 -0.3 0.2 -3.8 1.2 -7.7 1 -4 2.4 -9.9 3 -13.2 2.2 -11.1 1.5 -10.5 13.3 -10.5 12.1 0 13.7 0.9 13.7 7.9 0 4.2 -1.9 7 -6.6 9.7 -1.8 1.1 -1.8 1.3 1.3 7.2 1.7 3.3 2.8 6.3 2.5 6.6 -0.3 0.3 -1.8 0.6 -3.4 0.6 -2.6 0 -3.2 -0.7 -5.4 -5.7 -2.8 -6.2 -4.7 -8.2 -8 -8.3 -2.3 0 -3.1 1.7 -4 8.5 -0.3 2.2 -1.1 4.3 -1.7 4.7 -1.4 0.9 -5.1 1 -5.9 0.2z m21.5 -19 c2.8 -0.8 4.2 -4.3 2.4 -6.1 -2 -2 -10.5 -2.2 -11.7 -0.3 -1.2 1.8 -1.3 6.4 -0.3 7.4 0.7 0.7 5.5 0.2 9.6 -1z"/>
  <path d="M688.5 525 c-0.3 -0.5 -0.4 -1.4 -0.1 -1.8 0.8 -1.4 5.6 -23.5 5.2 -23.9 -0.2 -0.3 -2.3 -0.7 -4.5 -1 -4.1 -0.6 -5.3 -2.2 -2.8 -3.9 0.6 -0.5 6.5 -0.8 13 -0.6 9.5 0.3 11.7 0.6 11.7 1.8 0 1.5 -0.2 1.7 -6.4 3 l-3.9 0.9 -1.8 8.5 c-1 4.7 -2.1 10.3 -2.5 12.5 -0.4 2.2 -1.2 4.3 -1.8 4.7 -1.6 1.1 -5.4 1 -6.1 -0.2z"/>
  <path d="M709 525.3 c0.1 -0.5 1 -4.8 2 -9.8 1.1 -4.9 2.5 -11.5 3.1 -14.5 0.7 -3 1.6 -5.9 2.1 -6.5 0.8 -0.9 22.7 -0.8 23.6 0 0.2 0.2 0.1 1.2 -0.2 2.3 -0.6 1.7 -1.6 1.9 -9 1.8 -4.6 -0.1 -8.7 0.2 -9 0.5 -0.3 0.3 -0.9 2 -1.2 3.7 l-0.6 3.2 8 0 c4.5 0 8.3 0.3 8.5 0.8 0.3 0.4 0.1 1.7 -0.4 3 -0.8 2 -1.4 2.2 -9.4 2.2 -8.3 0 -8.5 0 -8.5 2.4 0 1.4 -0.5 2.8 -1 3.1 -0.8 0.5 -0.7 1.1 0.1 2.1 0.8 1 3.5 1.4 9.4 1.4 4.5 0 8.5 0.3 8.8 0.6 0.3 0.4 0.2 1.5 -0.4 2.5 -0.9 1.7 -2.3 1.9 -13.4 1.9 -6.9 0 -12.5 -0.3 -12.5 -0.7z"/>
  <path d="M743.9 523.1 c-3.5 -3.5 -3.8 -6.6 -0.7 -7.4 2.4 -0.7 4.8 0.8 4.8 2.8 0 2.9 6.7 3.4 10 0.7 3 -2.4 2.2 -3.6 -5.1 -7.3 -8 -4 -10.2 -9.7 -5.8 -15.3 1.8 -2.3 2.7 -2.6 8.8 -2.6 8.2 0 12.4 2.4 11.9 6.9 -0.4 3.8 -3.3 3.8 -6.8 0.1 -3.1 -3.3 -5.8 -3.4 -8.9 -0.4 -1.9 1.8 -0.3 3.6 5.7 6.5 6.4 3.2 8.2 5.2 8.2 9.7 0 2.9 -0.7 4.5 -2.8 6.5 -2.5 2.4 -3.6 2.7 -9.6 2.7 -6.1 0 -7 -0.3 -9.7 -2.9z"/>
  <path d="M792.6 525.2 c-0.2 -0.4 0.2 -3.1 1 -6.1 1.5 -5.8 1.6 -5.4 -5.1 -19.3 -1.3 -2.6 -2 -4.9 -1.7 -5.2 0.3 -0.4 1.8 -0.6 3.4 -0.6 2.6 0 3.2 0.6 5.5 6 1.5 3.3 3 6 3.5 6 0.4 0 2.7 -2.7 5.1 -6 3.6 -5.2 4.6 -6 7.5 -6 1.9 0 3.2 0.5 3.2 1.3 0 0.6 -3 5 -6.5 9.7 -3.6 4.6 -6.9 10 -7.4 12 -0.5 1.9 -1.2 4.7 -1.5 6.3 -0.5 2.2 -1.2 2.7 -3.6 2.7 -1.6 0 -3.1 -0.3 -3.4 -0.8z"/>
  <path d="M431.5 524 c-0.3 -0.5 0.4 -5.5 1.6 -11.2 3.2 -15 3.2 -15.2 -1.6 -15.8 -3.7 -0.5 -4.1 -0.9 -3.6 -4 0.1 -1.3 24.8 -1.3 25.6 0 0.3 0.5 0.1 1.9 -0.5 3.1 -0.9 1.7 -1.9 2 -5.3 1.7 l-4.2 -0.3 -1.3 5 c-0.7 2.8 -1.9 8.4 -2.8 12.5 -0.9 4.1 -2 7.9 -2.5 8.4 -1.3 1.4 -4.7 1.7 -5.4 0.6z"/>
  <path d="M452.3 523.4 c-0.3 -0.9 -0.1 -4 0.6 -6.8 0.7 -2.8 1.7 -7.1 2.2 -9.6 0.9 -4.1 2.6 -10.6 3.5 -13.9 0.3 -1 2.6 -1.2 10.5 -0.9 9.1 0.3 10.3 0.6 12 2.7 3.8 4.6 1 15.1 -4 15.1 -3.1 0 -3 1 0.1 7.2 1.6 3.3 2.7 6.2 2.4 6.5 -0.3 0.4 -1.8 0.8 -3.2 0.9 -2.3 0.3 -2.9 -0.4 -5.4 -6 -2.3 -4.9 -3.5 -6.5 -5.6 -7 -3.5 -0.9 -5 0.6 -5.8 5.5 -0.4 2.3 -1.1 5 -1.7 6 -1.2 2.3 -4.7 2.5 -5.6 0.3z m22.5 -19.4 c1.8 -1.7 2 -2.5 1.2 -4 -0.9 -1.6 -2.1 -2 -6.4 -2 -5.2 0 -5.5 0.1 -6.5 3.1 -1.6 4.8 -1.5 4.9 4.2 4.9 4 0 5.9 -0.5 7.5 -2z"/>
  <path d="M483.5 524 c-0.3 -0.5 3.4 -7.8 8.3 -16.2 8.5 -14.8 8.9 -15.3 12.3 -15.6 3.5 -0.3 3.6 -0.3 4.7 5 0.6 2.9 1.6 8.7 2.2 12.8 0.6 4.1 1.3 9 1.6 10.8 0.5 3.3 0.4 3.3 -2.8 3 -2.8 -0.2 -3.4 -0.7 -3.6 -3 -0.3 -2.7 -0.5 -2.8 -7 -2.8 -6.4 0.1 -6.8 0.2 -8.7 3.2 -2 3.1 -5.9 4.7 -7 2.8z m20.9 -16.7 c-0.3 -2.7 -1 -5.2 -1.4 -5.6 -0.7 -0.8 -6 7.5 -6 9.4 0 0.5 1.8 0.9 4.1 0.9 l4 0 -0.7 -4.7z"/>
  <path d="M1043.3 350.1 c-1.7 -0.5 -2 -1 -1.3 -2.1 0.8 -1.2 1 -1.2 1 -0.1 0 0.9 0.9 1.2 3 0.9 1.8 -0.3 2.9 0 2.7 0.5 -0.4 1.3 -2.5 1.6 -5.4 0.8z"/>
  <path d="M57 346 c0 -0.5 0.7 -1 1.5 -1 0.8 0 1.5 0.5 1.5 1 0 0.6 -0.7 1 -1.5 1 -0.8 0 -1.5 -0.4 -1.5 -1z"/>
  <path d="M934.6 344.2 c-0.3 -0.3 -0.6 -0.9 -0.6 -1.4 0 -1.1 3.7 -1 4.4 0.1 0.6 1 -3 2.2 -3.8 1.3z"/>
  <path d="M864 342.9 c-1.3 -0.9 -1.2 -1 0.3 -0.5 0.9 0.3 1.7 0.1 1.7 -0.4 0 -0.6 0.7 -1 1.5 -1 2 0 1.9 1.6 -0.1 2.4 -1.9 0.7 -1.6 0.8 -3.4 -0.5z"/>
  <path d="M981.5 343.2 c-1.3 -1.3 -0.3 -2.3 2 -2 1.4 0.2 2.6 0.8 2.5 1.3 0 1.1 -3.6 1.6 -4.5 0.7z"/>
  <path d="M856.3 342.3 c-1.5 -0.5 -1.8 -3.3 -0.4 -3.3 1.7 0 4.1 1.2 4.1 2 0 1.1 -2.2 1.8 -3.7 1.3z"/>
  <path d="M991.3 342.3 c-2.4 -0.9 -1.3 -2.3 1.8 -2.3 1.9 0 2.9 0.4 2.7 1.2 -0.4 1.2 -2.6 1.8 -4.5 1.1z"/>
  <path d="M1013.7 341.4 c-1.3 -1.3 -0.7 -2.4 1.4 -2.4 1.1 0 1.9 0.5 1.7 1.2 -0.5 1.4 -2.2 2.1 -3.1 1.2z"/>
  <path d="M1018.6 339.5 c0.4 -0.8 1.2 -1.5 1.9 -1.5 0.7 0 1.5 0.7 1.9 1.5 0.4 1.1 -0.1 1.5 -1.9 1.5 -1.8 0 -2.3 -0.4 -1.9 -1.5z"/>
  <path d="M896 338.5 c-1 -1.2 -1 -1.5 0.4 -1.5 0.9 0 1.6 0.7 1.6 1.5 0 0.8 -0.2 1.5 -0.4 1.5 -0.2 0 -0.9 -0.7 -1.6 -1.5z"/>
  <path d="M812.6 338.1 c-1.9 -0.7 -1.9 -0.8 0.1 -1.3 1.4 -0.4 2.4 0 2.7 0.8 0.6 1.5 0.1 1.6 -2.8 0.5z"/>
  <path d="M785.8 334.9 c-2.1 -1.2 -2.4 -3.9 -0.4 -3.9 0.7 0 1.6 1.1 1.8 2.5 0.3 1.4 0.5 2.5 0.4 2.5 0 0 -0.9 -0.5 -1.8 -1.1z"/>
  <path d="M762.8 331.1 c-6 -0.8 -10.8 -1.9 -10.8 -2.3 0 -1.8 20.2 0.3 20.8 2.2 0.3 0.8 0.8 0.7 1.8 -0.1 1.2 -1 1.3 -0.9 0.8 0.5 -0.3 0.9 -0.9 1.5 -1.3 1.5 -0.3 -0.1 -5.4 -0.9 -11.3 -1.8z"/>
  <path d="M859 330 c0 -0.5 0.7 -1 1.5 -1 0.8 0 1.5 0.5 1.5 1 0 0.6 -0.7 1 -1.5 1 -0.8 0 -1.5 -0.4 -1.5 -1z"/>
  <path d="M834.6 329.3 c-0.8 -0.9 0.3 -2.3 1.9 -2.3 2 0 2.5 2.6 0.5 2.7 -1 0.1 -2.1 -0.1 -2.4 -0.4z"/>
  <path d="M165.3 325.3 c-1.2 -3.3 -3.3 -11.9 -3.3 -13.4 0 -0.5 0.4 -0.8 1 -0.4 0.5 0.3 0.6 1.3 0.3 2.2 -0.5 1.2 -0.2 1.5 1.4 1.1 1.7 -0.5 2 0 2.2 4.6 0.1 2.8 0.4 5.9 0.7 6.9 0.9 2.8 -1.3 1.9 -2.3 -1z"/>
  <path d="M769 323 l-2.5 -0.6 2.5 -0.7 c2.6 -0.7 3.4 -0.4 2.9 1.1 -0.2 0.4 -1.5 0.5 -2.9 0.2z"/>
  <path d="M575 283.5 c0 -0.8 0.7 -1.5 1.5 -1.5 0.8 0 1.5 0.4 1.5 0.9 0 0.5 -0.7 1.1 -1.5 1.5 -0.9 0.3 -1.5 0 -1.5 -0.9z"/>
  <path d="M1010.2 275.4 c-2.3 -1.6 -2.9 -3.4 -1.2 -3.4 0.6 0 1 0.5 1 1.1 0 0.7 0.8 1.8 1.8 2.5 2.4 1.9 1.1 1.7 -1.6 -0.2z"/>
  <path d="M180.6 261.7 c0.3 -1 0.1 -1.7 -0.6 -1.7 -0.6 0 -0.8 -0.4 -0.5 -1 0.7 -1.2 4.5 -1.3 4.5 -0.2 0 0.5 -0.9 1.7 -2 2.7 -1.8 1.7 -2 1.7 -1.4 0.2z"/>
  <path d="M663 245 c-1.2 -0.8 -0.9 -1 1.3 -1 1.5 0 2.7 0.5 2.7 1 0 1.3 -2 1.3 -4 0z"/>
  <path d="M652.8 243.3 c-1 -0.2 -1.8 -0.8 -1.8 -1.2 0 -0.4 -1.7 -0.6 -3.7 -0.4 -3.8 0.3 -3.8 0.3 -0.9 -0.8 2.8 -1.1 6.9 -0.4 13.1 2.1 1.6 0.7 1.3 0.9 -1.5 0.8 -1.9 0 -4.3 -0.2 -5.2 -0.5z"/>
  <path d="M441 240.1 c0 -0.5 0.6 -1.1 1.3 -1.3 1.7 -0.7 3.8 0.2 3.1 1.3 -0.7 1.2 -4.4 1.2 -4.4 0z"/>
  <path d="M910.8 238.9 c-2.8 -1.6 -2.1 -2.9 1.5 -2.8 1.8 0.1 2.4 0.3 1.4 0.6 -1.1 0.3 -1.6 1.1 -1.3 1.9 0.6 1.6 0.6 1.6 -1.6 0.3z"/>
  <path d="M892 234.8 c0 -0.4 1.8 -0.8 4.1 -0.8 2.5 0 3.8 0.4 3.4 1 -0.7 1.2 -7.5 1 -7.5 -0.2z"/>
  <path d="M884 233.1 c0 -0.4 1.1 -0.6 2.5 -0.3 1.4 0.2 2.5 0.6 2.5 0.8 0 0.2 -1.1 0.4 -2.5 0.4 -1.4 0 -2.5 -0.4 -2.5 -0.9z"/>
  <path d="M616.2 230.5 c-0.9 -2 -0.9 -2.5 0.2 -2.5 0.8 0 1.4 1.1 1.4 2.5 0 1.4 -0.1 2.5 -0.3 2.5 -0.1 0 -0.7 -1.1 -1.3 -2.5z"/>
  <path d="M551.8 231.3 c-2.1 -0.5 -2.4 -2.3 -0.4 -2.3 0.8 0 1.6 0.7 2 1.5 0.3 0.8 0.4 1.4 0.3 1.4 -0.1 -0.1 -1 -0.3 -1.9 -0.6z"/>
  <path d="M556 230.3 c0 -0.8 1.3 -1.3 3.5 -1.3 1.9 0 3.5 0.4 3.5 0.9 0 0.5 -1.6 1.1 -3.5 1.3 -2.4 0.3 -3.5 0 -3.5 -0.9z"/>
  <path d="M720.3 229.3 c-3.8 -0.7 -2.6 -2.3 1.8 -2.3 2.8 0 3.9 0.4 3.7 1.3 -0.5 1.3 -2.2 1.7 -5.5 1z"/>
  <path d="M231.6 227.5 c-0.3 -0.9 0 -1.5 0.9 -1.5 0.8 0 1.5 0.7 1.5 1.5 0 0.8 -0.4 1.5 -0.9 1.5 -0.5 0 -1.1 -0.7 -1.5 -1.5z"/>
  <path d="M477.7 219.3 c-1.2 -1.1 -0.8 -2.3 0.8 -2.3 0.8 0 1.5 0.7 1.5 1.5 0 1.6 -1.2 2 -2.3 0.8z"/>
  <path d="M505.4 193.6 c-1.9 -1.5 -1.9 -1.5 0 -1.2 1.1 0.2 2.2 0.8 2.4 1.4 0.5 1.6 0 1.5 -2.4 -0.2z"/>
  <path d="M491.5 182.1 c-0.6 -1.1 0.9 -2.3 1.9 -1.4 0.9 0.9 0.7 2.3 -0.3 2.3 -0.6 0 -1.2 -0.4 -1.6 -0.9z"/>
  <path d="M670.7 171.4 c-0.3 -0.4 -3.5 -0.8 -6.9 -1 -7 -0.4 -8.5 -1.3 -6.9 -4.1 0.6 -1 1.1 -1.3 1.1 -0.6 0 0.7 2.3 1.1 6.8 1.1 6.8 0 18.4 1.8 21.2 3.3 0.9 0.5 -0.8 0.9 -4.5 0.9 -3.3 0 -6.9 0.3 -8 0.6 -1.1 0.3 -2.4 0.2 -2.8 -0.2z"/>
  <path d="M397 165.5 c0 -0.8 0.7 -1.5 1.5 -1.5 0.8 0 1.5 0.4 1.5 0.9 0 0.5 -0.7 1.1 -1.5 1.5 -0.9 0.3 -1.5 0 -1.5 -0.9z"/>
  <path d="M623 162.1 c-2.4 -0.7 -2.4 -0.7 -0.3 -1.3 1.4 -0.4 2.4 -0.1 2.7 0.8 0.3 0.8 0.4 1.4 0.3 1.3 -0.1 -0.1 -1.3 -0.4 -2.7 -0.8z"/>
  <path d="M428 160.5 c0 -0.8 0.7 -1.5 1.5 -1.5 0.8 0 1.5 0.4 1.5 0.9 0 0.5 -0.7 1.1 -1.5 1.5 -0.9 0.3 -1.5 0 -1.5 -0.9z"/>
  <path d="M504 154.3 c0 -0.7 0.6 -1.3 1.4 -1.3 0.8 0 1.6 0.6 1.9 1.3 0.3 0.8 -0.3 1.3 -1.4 1.3 -1.1 0 -1.9 -0.6 -1.9 -1.3z"/>
  <path d="M241.7 23.9 c0.3 -1 1.2 -1.9 1.9 -1.9 2 0 1.7 1.3 -0.5 2.7 -1.6 1 -1.8 0.9 -1.4 -0.8z"/>
  <path d="M270 19.2 c0 -0.5 2.3 -0.9 5 -1 2.9 0 4.8 0.3 4.5 0.9 -0.8 1.1 -9.5 1.2 -9.5 0.1z"/>
 </g>
</svg>